<?xml version="1.0" encoding="UTF-8"?>
<svg xmlns="http://www.w3.org/2000/svg" xmlns:xlink="http://www.w3.org/1999/xlink" width="854" height="480" viewBox="0 0 854 480">
<defs>
<g>
<g id="glyph-0-0">
<path d="M 2.554688 -2.257812 C 2.480469 -2.246094 2.410156 -2.21875 2.34375 -2.179688 C 2.277344 -2.140625 2.222656 -2.070312 2.175781 -1.96875 C 2.078125 -1.75 1.980469 -1.523438 1.878906 -1.285156 C 1.773438 -1.046875 1.667969 -0.800781 1.558594 -0.539062 C 1.523438 -0.464844 1.492188 -0.375 1.453125 -0.273438 C 1.417969 -0.171875 1.382812 -0.0742188 1.351562 0.0234375 L 1.164062 0.0234375 C 1.007812 -0.359375 0.863281 -0.710938 0.734375 -1.023438 C 0.605469 -1.339844 0.46875 -1.660156 0.328125 -1.992188 C 0.296875 -2.066406 0.246094 -2.125 0.171875 -2.167969 C 0.101562 -2.207031 0.0273438 -2.234375 -0.046875 -2.246094 L -0.046875 -2.40625 L 1.066406 -2.40625 L 1.066406 -2.234375 C 1.019531 -2.234375 0.957031 -2.222656 0.882812 -2.207031 C 0.8125 -2.1875 0.773438 -2.160156 0.773438 -2.128906 C 0.773438 -2.125 0.777344 -2.113281 0.785156 -2.089844 C 0.796875 -2.070312 0.804688 -2.046875 0.8125 -2.023438 C 0.878906 -1.855469 0.972656 -1.625 1.09375 -1.328125 C 1.214844 -1.027344 1.316406 -0.789062 1.390625 -0.605469 C 1.449219 -0.746094 1.523438 -0.921875 1.613281 -1.128906 C 1.699219 -1.335938 1.796875 -1.570312 1.898438 -1.828125 C 1.914062 -1.871094 1.929688 -1.910156 1.945312 -1.949219 C 1.960938 -1.988281 1.96875 -2.027344 1.96875 -2.066406 C 1.96875 -2.09375 1.953125 -2.117188 1.925781 -2.140625 C 1.898438 -2.160156 1.867188 -2.179688 1.832031 -2.199219 C 1.792969 -2.214844 1.757812 -2.226562 1.71875 -2.234375 C 1.683594 -2.242188 1.65625 -2.246094 1.632812 -2.25 L 1.632812 -2.40625 L 2.554688 -2.40625 Z "/>
</g>
<g id="glyph-0-1">
<path d="M 1.765625 -1.179688 C 1.832031 -1.121094 1.882812 -1.054688 1.917969 -0.976562 C 1.953125 -0.898438 1.972656 -0.804688 1.972656 -0.695312 C 1.972656 -0.472656 1.890625 -0.289062 1.722656 -0.148438 C 1.554688 -0.0078125 1.339844 0.0625 1.074219 0.0625 C 0.933594 0.0625 0.804688 0.0390625 0.6875 -0.0117188 C 0.570312 -0.0625 0.484375 -0.109375 0.433594 -0.152344 L 0.386719 0.0078125 L 0.203125 0.0078125 L 0.179688 -0.828125 L 0.347656 -0.828125 C 0.359375 -0.765625 0.386719 -0.691406 0.429688 -0.605469 C 0.472656 -0.523438 0.523438 -0.445312 0.582031 -0.375 C 0.648438 -0.304688 0.722656 -0.246094 0.8125 -0.195312 C 0.902344 -0.148438 1 -0.121094 1.109375 -0.121094 C 1.265625 -0.121094 1.386719 -0.15625 1.472656 -0.230469 C 1.558594 -0.300781 1.597656 -0.402344 1.597656 -0.535156 C 1.597656 -0.601562 1.585938 -0.660156 1.558594 -0.710938 C 1.53125 -0.761719 1.492188 -0.804688 1.441406 -0.84375 C 1.386719 -0.878906 1.320312 -0.914062 1.242188 -0.945312 C 1.164062 -0.972656 1.078125 -1.003906 0.980469 -1.03125 C 0.90625 -1.054688 0.820312 -1.085938 0.726562 -1.125 C 0.632812 -1.167969 0.550781 -1.214844 0.484375 -1.265625 C 0.414062 -1.324219 0.355469 -1.394531 0.308594 -1.476562 C 0.265625 -1.558594 0.242188 -1.65625 0.242188 -1.769531 C 0.242188 -1.96875 0.316406 -2.132812 0.460938 -2.269531 C 0.609375 -2.40625 0.804688 -2.476562 1.050781 -2.476562 C 1.144531 -2.476562 1.242188 -2.464844 1.339844 -2.4375 C 1.4375 -2.414062 1.519531 -2.386719 1.578125 -2.351562 L 1.636719 -2.476562 L 1.8125 -2.476562 L 1.847656 -1.703125 L 1.679688 -1.703125 C 1.644531 -1.878906 1.570312 -2.019531 1.457031 -2.128906 C 1.34375 -2.234375 1.207031 -2.289062 1.046875 -2.289062 C 0.910156 -2.289062 0.804688 -2.257812 0.730469 -2.1875 C 0.652344 -2.121094 0.613281 -2.039062 0.617188 -1.945312 C 0.613281 -1.871094 0.628906 -1.8125 0.652344 -1.761719 C 0.679688 -1.714844 0.714844 -1.671875 0.765625 -1.636719 C 0.816406 -1.605469 0.875 -1.574219 0.949219 -1.546875 C 1.023438 -1.519531 1.117188 -1.484375 1.226562 -1.449219 C 1.332031 -1.414062 1.433594 -1.375 1.53125 -1.332031 C 1.625 -1.285156 1.703125 -1.234375 1.765625 -1.179688 Z "/>
</g>
</g>
</defs>
<g fill="rgb(53.333333%, 53.333333%, 53.333333%)" fill-opacity="1">
<use xlink:href="#glyph-0-0" x="30" y="24.584961"/>
<use xlink:href="#glyph-0-1" x="32" y="24.584961"/>
</g>
</svg>
