<?xml version="1.0" encoding="UTF-8"?>
<svg xmlns="http://www.w3.org/2000/svg" xmlns:xlink="http://www.w3.org/1999/xlink" width="854" height="480" viewBox="0 0 854 480">
<defs>
<g>
<g id="glyph-0-0">
<path d="M 10.792969 0 L 6.3125 0 L 6.3125 -0.539062 C 6.707031 -0.566406 7.035156 -0.617188 7.296875 -0.691406 C 7.558594 -0.765625 7.6875 -0.859375 7.6875 -0.972656 C 7.6875 -1.019531 7.683594 -1.074219 7.671875 -1.140625 C 7.664062 -1.207031 7.648438 -1.261719 7.628906 -1.3125 L 6.734375 -3.730469 L 2.949219 -3.730469 C 2.808594 -3.375 2.695312 -3.066406 2.605469 -2.804688 C 2.515625 -2.539062 2.4375 -2.296875 2.367188 -2.074219 C 2.300781 -1.855469 2.253906 -1.679688 2.230469 -1.542969 C 2.203125 -1.40625 2.191406 -1.292969 2.191406 -1.207031 C 2.191406 -1.003906 2.351562 -0.847656 2.667969 -0.738281 C 2.988281 -0.625 3.347656 -0.558594 3.746094 -0.539062 L 3.746094 0 L -0.3125 0 L -0.3125 -0.539062 C -0.179688 -0.550781 -0.015625 -0.578125 0.183594 -0.625 C 0.378906 -0.675781 0.542969 -0.738281 0.667969 -0.820312 C 0.871094 -0.957031 1.027344 -1.101562 1.140625 -1.25 C 1.25 -1.398438 1.359375 -1.605469 1.464844 -1.867188 C 2.007812 -3.21875 2.605469 -4.738281 3.257812 -6.425781 C 3.910156 -8.113281 4.492188 -9.613281 5.003906 -10.929688 L 5.613281 -10.929688 L 9.207031 -1.632812 C 9.28125 -1.4375 9.367188 -1.277344 9.464844 -1.15625 C 9.558594 -1.03125 9.695312 -0.914062 9.867188 -0.796875 C 9.984375 -0.726562 10.136719 -0.667969 10.324219 -0.617188 C 10.511719 -0.570312 10.667969 -0.542969 10.792969 -0.539062 L 10.792969 0 M 6.457031 -4.40625 L 4.824219 -8.589844 L 3.214844 -4.40625 Z "/>
</g>
<g id="glyph-0-1">
<path d="M 9.394531 -3.207031 L 9.167969 0 L 0.746094 0 L 0.746094 -0.539062 C 0.867188 -0.550781 1.042969 -0.566406 1.273438 -0.59375 C 1.503906 -0.617188 1.664062 -0.652344 1.753906 -0.691406 C 1.90625 -0.757812 2.015625 -0.851562 2.085938 -0.980469 C 2.152344 -1.105469 2.1875 -1.269531 2.1875 -1.464844 L 2.1875 -9.183594 C 2.1875 -9.355469 2.160156 -9.507812 2.101562 -9.640625 C 2.042969 -9.769531 1.925781 -9.875 1.753906 -9.957031 C 1.636719 -10.019531 1.476562 -10.078125 1.265625 -10.136719 C 1.054688 -10.195312 0.882812 -10.230469 0.746094 -10.238281 L 0.746094 -10.777344 L 5.292969 -10.777344 L 5.292969 -10.238281 C 5.152344 -10.234375 4.96875 -10.207031 4.742188 -10.164062 C 4.519531 -10.117188 4.355469 -10.078125 4.253906 -10.042969 C 4.082031 -9.980469 3.964844 -9.875 3.902344 -9.730469 C 3.835938 -9.582031 3.804688 -9.425781 3.804688 -9.257812 L 3.804688 -2.019531 C 3.804688 -1.6875 3.820312 -1.425781 3.855469 -1.242188 C 3.886719 -1.058594 3.964844 -0.914062 4.085938 -0.8125 C 4.203125 -0.722656 4.375 -0.660156 4.605469 -0.632812 C 4.835938 -0.605469 5.160156 -0.59375 5.574219 -0.59375 C 5.761719 -0.59375 5.957031 -0.597656 6.160156 -0.609375 C 6.363281 -0.617188 6.554688 -0.636719 6.738281 -0.667969 C 6.914062 -0.699219 7.078125 -0.742188 7.226562 -0.792969 C 7.375 -0.847656 7.488281 -0.914062 7.558594 -0.996094 C 7.765625 -1.226562 8.007812 -1.582031 8.28125 -2.054688 C 8.558594 -2.527344 8.75 -2.910156 8.855469 -3.207031 Z "/>
</g>
<g id="glyph-0-2">
<path d="M 15.402344 -10.238281 C 15.277344 -10.234375 15.128906 -10.203125 14.964844 -10.152344 C 14.796875 -10.097656 14.640625 -10.027344 14.5 -9.941406 C 14.324219 -9.832031 14.179688 -9.703125 14.070312 -9.558594 C 13.960938 -9.414062 13.867188 -9.214844 13.785156 -8.957031 C 13.425781 -7.785156 13.007812 -6.417969 12.53125 -4.859375 C 12.058594 -3.296875 11.542969 -1.628906 10.992188 0.136719 L 10.292969 0.136719 L 7.570312 -8.164062 L 4.742188 0.136719 L 4.070312 0.136719 C 3.570312 -1.636719 3.050781 -3.476562 2.515625 -5.382812 C 1.976562 -7.289062 1.617188 -8.566406 1.4375 -9.214844 C 1.390625 -9.371094 1.324219 -9.511719 1.234375 -9.632812 C 1.144531 -9.753906 1.027344 -9.863281 0.875 -9.964844 C 0.746094 -10.050781 0.597656 -10.117188 0.429688 -10.160156 C 0.257812 -10.203125 0.105469 -10.230469 -0.03125 -10.238281 L -0.03125 -10.777344 L 4.363281 -10.777344 L 4.363281 -10.238281 C 3.976562 -10.21875 3.652344 -10.179688 3.378906 -10.125 C 3.109375 -10.070312 2.972656 -9.976562 2.972656 -9.84375 C 2.972656 -9.792969 2.980469 -9.726562 2.996094 -9.644531 C 3.011719 -9.558594 3.023438 -9.492188 3.035156 -9.441406 C 3.152344 -8.996094 3.355469 -8.257812 3.652344 -7.230469 C 3.949219 -6.203125 4.386719 -4.664062 4.96875 -2.613281 L 7.660156 -10.625 L 8.402344 -10.625 L 11.117188 -2.441406 C 11.484375 -3.699219 11.796875 -4.800781 12.0625 -5.742188 C 12.324219 -6.683594 12.542969 -7.488281 12.71875 -8.15625 C 12.839844 -8.628906 12.914062 -8.953125 12.945312 -9.125 C 12.976562 -9.300781 12.992188 -9.449219 12.992188 -9.570312 C 12.992188 -9.742188 12.875 -9.886719 12.636719 -10.003906 C 12.402344 -10.121094 12.019531 -10.199219 11.496094 -10.238281 L 11.496094 -10.777344 L 15.402344 -10.777344 Z "/>
</g>
<g id="glyph-0-3">
<path d="M 9.980469 -10.238281 C 9.894531 -10.234375 9.757812 -10.199219 9.570312 -10.136719 C 9.382812 -10.074219 9.25 -10.011719 9.167969 -9.949219 C 8.96875 -9.828125 8.835938 -9.734375 8.765625 -9.667969 C 8.695312 -9.601562 8.558594 -9.429688 8.355469 -9.152344 C 7.960938 -8.597656 7.59375 -8.03125 7.261719 -7.457031 C 6.925781 -6.886719 6.507812 -6.160156 6.007812 -5.277344 C 5.820312 -4.953125 5.695312 -4.695312 5.636719 -4.496094 C 5.574219 -4.300781 5.542969 -4.011719 5.542969 -3.636719 L 5.542969 -1.578125 C 5.542969 -1.398438 5.582031 -1.238281 5.65625 -1.105469 C 5.726562 -0.972656 5.855469 -0.863281 6.03125 -0.78125 C 6.136719 -0.742188 6.328125 -0.691406 6.601562 -0.632812 C 6.875 -0.574219 7.09375 -0.542969 7.261719 -0.539062 L 7.261719 0 L 2.21875 0 L 2.21875 -0.539062 C 2.359375 -0.550781 2.574219 -0.570312 2.855469 -0.597656 C 3.140625 -0.625 3.335938 -0.660156 3.449219 -0.707031 C 3.628906 -0.78125 3.757812 -0.886719 3.824219 -1.019531 C 3.894531 -1.148438 3.925781 -1.3125 3.925781 -1.503906 L 3.925781 -4.125 C 3.925781 -4.207031 3.878906 -4.355469 3.777344 -4.570312 C 3.679688 -4.785156 3.5625 -5.023438 3.425781 -5.285156 C 3.121094 -5.875 2.785156 -6.507812 2.414062 -7.191406 C 2.046875 -7.875 1.722656 -8.460938 1.449219 -8.949219 C 1.285156 -9.238281 1.136719 -9.453125 1.007812 -9.601562 C 0.878906 -9.746094 0.730469 -9.875 0.5625 -9.988281 C 0.441406 -10.0625 0.296875 -10.121094 0.125 -10.164062 C -0.0429688 -10.203125 -0.199219 -10.230469 -0.335938 -10.238281 L -0.335938 -10.777344 L 4.265625 -10.777344 L 4.265625 -10.238281 C 3.75 -10.230469 3.382812 -10.195312 3.171875 -10.132812 C 2.957031 -10.074219 2.851562 -9.988281 2.851562 -9.875 C 2.851562 -9.84375 2.867188 -9.792969 2.898438 -9.714844 C 2.929688 -9.640625 2.972656 -9.546875 3.027344 -9.429688 C 3.09375 -9.296875 3.171875 -9.144531 3.261719 -8.976562 C 3.351562 -8.808594 3.4375 -8.644531 3.519531 -8.488281 C 3.757812 -8.035156 4 -7.585938 4.246094 -7.140625 C 4.496094 -6.691406 4.816406 -6.109375 5.21875 -5.390625 C 6.011719 -6.667969 6.617188 -7.667969 7.035156 -8.382812 C 7.453125 -9.101562 7.660156 -9.527344 7.660156 -9.671875 C 7.660156 -9.785156 7.617188 -9.878906 7.53125 -9.949219 C 7.445312 -10.023438 7.332031 -10.078125 7.191406 -10.117188 C 7.042969 -10.15625 6.882812 -10.183594 6.710938 -10.199219 C 6.539062 -10.210938 6.378906 -10.222656 6.234375 -10.238281 L 6.234375 -10.777344 L 9.980469 -10.777344 Z "/>
</g>
<g id="glyph-0-4">
<path d="M 7.453125 -4.945312 C 7.679688 -4.691406 7.847656 -4.414062 7.957031 -4.113281 C 8.066406 -3.8125 8.121094 -3.460938 8.121094 -3.0625 C 8.121094 -2.109375 7.769531 -1.324219 7.0625 -0.707031 C 6.359375 -0.0898438 5.488281 0.21875 4.445312 0.21875 C 3.960938 0.21875 3.480469 0.144531 3 -0.00390625 C 2.519531 -0.152344 2.105469 -0.335938 1.753906 -0.546875 L 1.429688 0.0078125 L 0.820312 0.0078125 L 0.714844 -3.683594 L 1.328125 -3.683594 C 1.457031 -3.226562 1.605469 -2.816406 1.773438 -2.449219 C 1.941406 -2.082031 2.167969 -1.738281 2.445312 -1.421875 C 2.710938 -1.121094 3.015625 -0.882812 3.367188 -0.707031 C 3.71875 -0.527344 4.128906 -0.441406 4.59375 -0.441406 C 4.945312 -0.441406 5.25 -0.484375 5.511719 -0.578125 C 5.769531 -0.667969 5.984375 -0.796875 6.144531 -0.964844 C 6.308594 -1.132812 6.425781 -1.328125 6.503906 -1.554688 C 6.585938 -1.78125 6.625 -2.039062 6.625 -2.335938 C 6.625 -2.765625 6.5 -3.167969 6.257812 -3.539062 C 6.015625 -3.914062 5.652344 -4.195312 5.171875 -4.386719 C 4.84375 -4.519531 4.464844 -4.664062 4.039062 -4.824219 C 3.617188 -4.980469 3.25 -5.132812 2.941406 -5.273438 C 2.332031 -5.546875 1.859375 -5.90625 1.523438 -6.347656 C 1.1875 -6.789062 1.019531 -7.367188 1.019531 -8.082031 C 1.019531 -8.492188 1.101562 -8.875 1.269531 -9.230469 C 1.4375 -9.582031 1.671875 -9.898438 1.984375 -10.179688 C 2.277344 -10.441406 2.625 -10.648438 3.023438 -10.796875 C 3.421875 -10.945312 3.839844 -11.019531 4.277344 -11.019531 C 4.773438 -11.019531 5.21875 -10.945312 5.609375 -10.792969 C 6 -10.640625 6.359375 -10.464844 6.683594 -10.261719 L 6.996094 -10.777344 L 7.601562 -10.777344 L 7.664062 -7.199219 L 7.046875 -7.199219 C 6.9375 -7.609375 6.8125 -8.003906 6.671875 -8.378906 C 6.535156 -8.753906 6.351562 -9.09375 6.128906 -9.394531 C 5.910156 -9.691406 5.644531 -9.921875 5.332031 -10.097656 C 5.019531 -10.273438 4.632812 -10.359375 4.175781 -10.359375 C 3.695312 -10.359375 3.285156 -10.207031 2.945312 -9.898438 C 2.609375 -9.589844 2.4375 -9.210938 2.4375 -8.765625 C 2.4375 -8.300781 2.546875 -7.914062 2.765625 -7.605469 C 2.984375 -7.300781 3.300781 -7.046875 3.714844 -6.851562 C 4.082031 -6.675781 4.449219 -6.519531 4.804688 -6.390625 C 5.160156 -6.261719 5.507812 -6.125 5.839844 -5.976562 C 6.144531 -5.847656 6.4375 -5.695312 6.71875 -5.53125 C 7 -5.363281 7.242188 -5.167969 7.453125 -4.945312 Z "/>
</g>
<g id="glyph-0-5">
</g>
<g id="glyph-0-6">
<path d="M 5.488281 0.257812 C 4.84375 0.257812 4.230469 0.132812 3.640625 -0.121094 C 3.050781 -0.375 2.527344 -0.738281 2.074219 -1.214844 C 1.621094 -1.691406 1.261719 -2.273438 0.996094 -2.960938 C 0.726562 -3.648438 0.59375 -4.421875 0.59375 -5.28125 C 0.59375 -6.144531 0.722656 -6.925781 0.988281 -7.628906 C 1.25 -8.328125 1.613281 -8.933594 2.078125 -9.441406 C 2.539062 -9.941406 3.085938 -10.328125 3.710938 -10.601562 C 4.339844 -10.875 5.007812 -11.015625 5.722656 -11.015625 C 6.253906 -11.015625 6.734375 -10.949219 7.164062 -10.816406 C 7.59375 -10.683594 8.003906 -10.5 8.394531 -10.261719 L 8.703125 -10.777344 L 9.3125 -10.777344 L 9.378906 -6.933594 L 8.757812 -6.933594 C 8.675781 -7.308594 8.554688 -7.714844 8.394531 -8.152344 C 8.230469 -8.59375 8.042969 -8.964844 7.824219 -9.265625 C 7.582031 -9.609375 7.292969 -9.878906 6.960938 -10.074219 C 6.625 -10.269531 6.242188 -10.367188 5.8125 -10.367188 C 5.324219 -10.367188 4.867188 -10.257812 4.445312 -10.042969 C 4.023438 -9.824219 3.65625 -9.5 3.347656 -9.074219 C 3.054688 -8.664062 2.824219 -8.144531 2.65625 -7.511719 C 2.492188 -6.875 2.40625 -6.167969 2.40625 -5.390625 C 2.40625 -4.699219 2.496094 -4.066406 2.667969 -3.492188 C 2.84375 -2.917969 3.09375 -2.410156 3.417969 -1.976562 C 3.742188 -1.546875 4.125 -1.207031 4.566406 -0.964844 C 5.007812 -0.722656 5.503906 -0.601562 6.050781 -0.601562 C 6.460938 -0.601562 6.835938 -0.664062 7.179688 -0.792969 C 7.523438 -0.921875 7.824219 -1.09375 8.074219 -1.304688 C 8.328125 -1.527344 8.550781 -1.78125 8.742188 -2.066406 C 8.933594 -2.347656 9.09375 -2.660156 9.214844 -2.992188 L 9.785156 -2.71875 C 9.347656 -1.652344 8.769531 -0.886719 8.054688 -0.429688 C 7.335938 0.0273438 6.480469 0.257812 5.488281 0.257812 Z "/>
</g>
<g id="glyph-0-7">
<path d="M 11.902344 0 L 7.429688 0 L 7.429688 -0.539062 C 7.550781 -0.550781 7.726562 -0.566406 7.957031 -0.585938 C 8.1875 -0.605469 8.34375 -0.636719 8.429688 -0.675781 C 8.582031 -0.738281 8.695312 -0.828125 8.765625 -0.953125 C 8.835938 -1.078125 8.871094 -1.238281 8.871094 -1.4375 L 8.871094 -5.269531 L 3.804688 -5.269531 L 3.804688 -1.519531 C 3.804688 -1.34375 3.835938 -1.191406 3.894531 -1.070312 C 3.949219 -0.949219 4.066406 -0.84375 4.238281 -0.753906 C 4.324219 -0.707031 4.476562 -0.660156 4.699219 -0.617188 C 4.917969 -0.570312 5.089844 -0.542969 5.21875 -0.539062 L 5.21875 0 L 0.746094 0 L 0.746094 -0.539062 C 0.867188 -0.550781 1.042969 -0.566406 1.273438 -0.585938 C 1.503906 -0.605469 1.660156 -0.636719 1.746094 -0.675781 C 1.898438 -0.738281 2.011719 -0.828125 2.082031 -0.953125 C 2.152344 -1.078125 2.1875 -1.238281 2.1875 -1.4375 L 2.1875 -9.214844 C 2.1875 -9.375 2.15625 -9.523438 2.089844 -9.65625 C 2.023438 -9.792969 1.910156 -9.898438 1.746094 -9.972656 C 1.609375 -10.039062 1.445312 -10.097656 1.25 -10.148438 C 1.054688 -10.199219 0.886719 -10.230469 0.746094 -10.238281 L 0.746094 -10.777344 L 5.21875 -10.777344 L 5.21875 -10.238281 C 5.078125 -10.234375 4.902344 -10.210938 4.699219 -10.171875 C 4.492188 -10.128906 4.339844 -10.09375 4.238281 -10.058594 C 4.066406 -9.996094 3.949219 -9.894531 3.894531 -9.753906 C 3.835938 -9.609375 3.804688 -9.457031 3.804688 -9.289062 L 3.804688 -5.949219 L 8.871094 -5.949219 L 8.871094 -9.214844 C 8.871094 -9.375 8.839844 -9.523438 8.773438 -9.65625 C 8.707031 -9.792969 8.59375 -9.898438 8.429688 -9.972656 C 8.292969 -10.039062 8.128906 -10.097656 7.933594 -10.148438 C 7.738281 -10.199219 7.570312 -10.230469 7.429688 -10.238281 L 7.429688 -10.777344 L 11.902344 -10.777344 L 11.902344 -10.238281 C 11.761719 -10.234375 11.585938 -10.210938 11.382812 -10.171875 C 11.175781 -10.128906 11.023438 -10.09375 10.921875 -10.058594 C 10.75 -9.996094 10.636719 -9.894531 10.578125 -9.753906 C 10.519531 -9.609375 10.488281 -9.457031 10.488281 -9.289062 L 10.488281 -1.519531 C 10.488281 -1.34375 10.519531 -1.191406 10.578125 -1.070312 C 10.636719 -0.949219 10.75 -0.84375 10.921875 -0.753906 C 11.007812 -0.707031 11.160156 -0.660156 11.382812 -0.617188 C 11.601562 -0.570312 11.777344 -0.542969 11.902344 -0.539062 Z "/>
</g>
<g id="glyph-0-8">
<path d="M 9.804688 -3.175781 L 9.601562 0 L 0.652344 0 L 0.652344 -0.539062 C 0.804688 -0.550781 1.007812 -0.570312 1.261719 -0.605469 C 1.515625 -0.636719 1.679688 -0.671875 1.753906 -0.707031 C 1.917969 -0.78125 2.03125 -0.882812 2.09375 -1.003906 C 2.15625 -1.125 2.1875 -1.277344 2.1875 -1.464844 L 2.1875 -9.214844 C 2.1875 -9.378906 2.160156 -9.527344 2.105469 -9.65625 C 2.046875 -9.785156 1.933594 -9.890625 1.753906 -9.972656 C 1.617188 -10.039062 1.433594 -10.097656 1.203125 -10.148438 C 0.972656 -10.199219 0.789062 -10.230469 0.652344 -10.238281 L 0.652344 -10.777344 L 8.992188 -10.777344 L 8.992188 -8.179688 L 8.421875 -8.179688 C 8.324219 -8.566406 8.101562 -8.972656 7.765625 -9.40625 C 7.429688 -9.839844 7.109375 -10.078125 6.804688 -10.117188 C 6.648438 -10.136719 6.460938 -10.152344 6.242188 -10.164062 C 6.027344 -10.171875 5.777344 -10.179688 5.5 -10.179688 L 3.804688 -10.179688 L 3.804688 -5.894531 L 5.019531 -5.894531 C 5.410156 -5.894531 5.695312 -5.929688 5.875 -6.003906 C 6.054688 -6.078125 6.214844 -6.199219 6.351562 -6.371094 C 6.460938 -6.519531 6.554688 -6.714844 6.636719 -6.960938 C 6.714844 -7.207031 6.765625 -7.4375 6.789062 -7.65625 L 7.359375 -7.65625 L 7.359375 -3.433594 L 6.789062 -3.433594 C 6.769531 -3.675781 6.714844 -3.933594 6.628906 -4.203125 C 6.539062 -4.476562 6.445312 -4.671875 6.351562 -4.792969 C 6.191406 -4.992188 6.015625 -5.121094 5.816406 -5.179688 C 5.613281 -5.242188 5.351562 -5.269531 5.019531 -5.269531 L 3.804688 -5.269531 L 3.804688 -2.039062 C 3.804688 -1.71875 3.828125 -1.460938 3.875 -1.273438 C 3.917969 -1.089844 4.007812 -0.945312 4.140625 -0.851562 C 4.269531 -0.753906 4.449219 -0.691406 4.679688 -0.664062 C 4.90625 -0.636719 5.230469 -0.621094 5.652344 -0.621094 C 5.816406 -0.621094 6.039062 -0.621094 6.3125 -0.621094 C 6.585938 -0.621094 6.816406 -0.632812 7.003906 -0.652344 C 7.195312 -0.671875 7.394531 -0.710938 7.597656 -0.761719 C 7.804688 -0.816406 7.949219 -0.890625 8.035156 -0.980469 C 8.269531 -1.222656 8.511719 -1.589844 8.769531 -2.085938 C 9.023438 -2.578125 9.1875 -2.941406 9.257812 -3.175781 Z "/>
</g>
<g id="glyph-0-9">
<path d="M 11.203125 0 L 8.179688 0 C 7.597656 -0.902344 6.953125 -1.796875 6.238281 -2.683594 C 5.527344 -3.574219 4.78125 -4.4375 4.003906 -5.269531 L 3.804688 -5.269531 L 3.804688 -1.519531 C 3.804688 -1.351562 3.835938 -1.203125 3.902344 -1.070312 C 3.964844 -0.9375 4.078125 -0.832031 4.246094 -0.753906 C 4.328125 -0.714844 4.476562 -0.671875 4.699219 -0.621094 C 4.917969 -0.570312 5.101562 -0.542969 5.25 -0.539062 L 5.25 0 L 0.773438 0 L 0.773438 -0.539062 C 0.890625 -0.550781 1.0625 -0.566406 1.285156 -0.585938 C 1.507812 -0.605469 1.664062 -0.636719 1.753906 -0.675781 C 1.90625 -0.742188 2.015625 -0.839844 2.085938 -0.96875 C 2.152344 -1.097656 2.1875 -1.253906 2.1875 -1.4375 L 2.1875 -9.214844 C 2.1875 -9.386719 2.160156 -9.535156 2.101562 -9.660156 C 2.042969 -9.789062 1.925781 -9.890625 1.753906 -9.972656 C 1.617188 -10.039062 1.457031 -10.097656 1.269531 -10.148438 C 1.082031 -10.199219 0.917969 -10.230469 0.773438 -10.238281 L 0.773438 -10.777344 L 5.25 -10.777344 L 5.25 -10.238281 C 5.105469 -10.234375 4.929688 -10.210938 4.71875 -10.171875 C 4.503906 -10.128906 4.347656 -10.09375 4.246094 -10.058594 C 4.074219 -9.996094 3.957031 -9.894531 3.898438 -9.753906 C 3.835938 -9.609375 3.804688 -9.457031 3.804688 -9.289062 L 3.804688 -5.566406 L 3.957031 -5.566406 C 4.414062 -5.953125 4.859375 -6.355469 5.300781 -6.773438 C 5.742188 -7.1875 6.140625 -7.605469 6.5 -8.019531 C 6.902344 -8.480469 7.195312 -8.851562 7.378906 -9.125 C 7.5625 -9.402344 7.65625 -9.648438 7.65625 -9.859375 C 7.65625 -9.933594 7.609375 -9.996094 7.515625 -10.046875 C 7.421875 -10.09375 7.316406 -10.132812 7.191406 -10.164062 C 7.050781 -10.195312 6.925781 -10.210938 6.8125 -10.21875 C 6.703125 -10.226562 6.609375 -10.234375 6.539062 -10.238281 L 6.539062 -10.777344 L 10.582031 -10.777344 L 10.582031 -10.238281 C 10.566406 -10.238281 10.53125 -10.238281 10.480469 -10.230469 C 10.429688 -10.226562 10.375 -10.222656 10.308594 -10.214844 C 10.238281 -10.210938 10.164062 -10.199219 10.09375 -10.1875 C 10.023438 -10.171875 9.933594 -10.152344 9.820312 -10.132812 C 9.644531 -10.09375 9.460938 -10.027344 9.269531 -9.9375 C 9.082031 -9.851562 8.925781 -9.738281 8.804688 -9.609375 C 8.285156 -9.015625 7.738281 -8.402344 7.171875 -7.769531 C 6.605469 -7.136719 6.046875 -6.558594 5.488281 -6.035156 C 6.261719 -5.167969 6.898438 -4.417969 7.402344 -3.789062 C 7.90625 -3.160156 8.441406 -2.492188 9.011719 -1.777344 C 9.226562 -1.503906 9.445312 -1.285156 9.660156 -1.121094 C 9.878906 -0.957031 10.0625 -0.832031 10.21875 -0.753906 C 10.351562 -0.6875 10.515625 -0.636719 10.710938 -0.601562 C 10.910156 -0.566406 11.074219 -0.542969 11.203125 -0.539062 Z "/>
</g>
<g id="glyph-0-10">
<path d="M 9.449219 -9.503906 C 9.925781 -9.007812 10.296875 -8.40625 10.566406 -7.707031 C 10.835938 -7.003906 10.96875 -6.226562 10.96875 -5.378906 C 10.96875 -4.523438 10.832031 -3.746094 10.558594 -3.046875 C 10.285156 -2.347656 9.90625 -1.753906 9.417969 -1.261719 C 8.949219 -0.773438 8.402344 -0.398438 7.777344 -0.136719 C 7.15625 0.125 6.492188 0.257812 5.789062 0.257812 C 5.039062 0.257812 4.347656 0.117188 3.710938 -0.164062 C 3.074219 -0.445312 2.53125 -0.835938 2.074219 -1.335938 C 1.617188 -1.828125 1.257812 -2.425781 1 -3.125 C 0.738281 -3.828125 0.609375 -4.578125 0.609375 -5.378906 C 0.609375 -6.253906 0.746094 -7.035156 1.019531 -7.722656 C 1.292969 -8.40625 1.667969 -9 2.148438 -9.503906 C 2.625 -10 3.179688 -10.378906 3.808594 -10.640625 C 4.441406 -10.90625 5.097656 -11.035156 5.789062 -11.035156 C 6.5 -11.035156 7.175781 -10.902344 7.808594 -10.632812 C 8.441406 -10.367188 8.988281 -9.988281 9.449219 -9.503906 M 8.316406 -1.859375 C 8.601562 -2.320312 8.808594 -2.84375 8.9375 -3.425781 C 9.066406 -4.007812 9.128906 -4.660156 9.128906 -5.378906 C 9.128906 -6.117188 9.058594 -6.796875 8.914062 -7.414062 C 8.769531 -8.03125 8.558594 -8.558594 8.28125 -8.992188 C 8 -9.421875 7.652344 -9.757812 7.230469 -10 C 6.8125 -10.242188 6.328125 -10.359375 5.789062 -10.359375 C 5.179688 -10.359375 4.664062 -10.222656 4.238281 -9.941406 C 3.8125 -9.664062 3.464844 -9.292969 3.199219 -8.828125 C 2.945312 -8.378906 2.757812 -7.859375 2.632812 -7.261719 C 2.507812 -6.664062 2.445312 -6.035156 2.445312 -5.378906 C 2.445312 -4.648438 2.511719 -3.992188 2.644531 -3.402344 C 2.773438 -2.816406 2.984375 -2.292969 3.265625 -1.839844 C 3.539062 -1.390625 3.882812 -1.042969 4.300781 -0.792969 C 4.714844 -0.542969 5.210938 -0.417969 5.789062 -0.417969 C 6.328125 -0.417969 6.820312 -0.542969 7.253906 -0.796875 C 7.6875 -1.050781 8.042969 -1.40625 8.316406 -1.859375 Z "/>
</g>
<g id="glyph-0-11">
<path d="M 11.644531 -10.238281 C 11.503906 -10.234375 11.292969 -10.203125 11.019531 -10.148438 C 10.746094 -10.09375 10.523438 -10.007812 10.351562 -9.898438 C 10.179688 -9.78125 10.0625 -9.539062 9.996094 -9.175781 C 9.929688 -8.8125 9.898438 -8.367188 9.898438 -7.839844 L 9.898438 -3.152344 C 9.898438 -2.554688 9.773438 -2.035156 9.523438 -1.59375 C 9.277344 -1.15625 8.949219 -0.792969 8.546875 -0.507812 C 8.144531 -0.234375 7.722656 -0.0390625 7.28125 0.078125 C 6.835938 0.199219 6.414062 0.257812 6.007812 0.257812 C 5.359375 0.257812 4.78125 0.171875 4.277344 0.00390625 C 3.769531 -0.164062 3.34375 -0.394531 3 -0.683594 C 2.660156 -0.972656 2.40625 -1.300781 2.234375 -1.675781 C 2.0625 -2.046875 1.976562 -2.4375 1.976562 -2.839844 L 1.976562 -9.214844 C 1.976562 -9.390625 1.945312 -9.539062 1.886719 -9.65625 C 1.828125 -9.777344 1.710938 -9.886719 1.535156 -9.988281 C 1.40625 -10.058594 1.246094 -10.117188 1.046875 -10.160156 C 0.851562 -10.203125 0.6875 -10.230469 0.5625 -10.238281 L 0.5625 -10.777344 L 5.050781 -10.777344 L 5.050781 -10.238281 C 4.910156 -10.234375 4.730469 -10.210938 4.515625 -10.171875 C 4.300781 -10.128906 4.140625 -10.09375 4.039062 -10.058594 C 3.867188 -9.996094 3.753906 -9.894531 3.695312 -9.753906 C 3.636719 -9.613281 3.609375 -9.457031 3.609375 -9.289062 L 3.609375 -3.339844 C 3.609375 -3.050781 3.640625 -2.75 3.703125 -2.433594 C 3.765625 -2.117188 3.890625 -1.820312 4.078125 -1.546875 C 4.277344 -1.269531 4.542969 -1.042969 4.882812 -0.867188 C 5.222656 -0.6875 5.6875 -0.601562 6.28125 -0.601562 C 6.839844 -0.601562 7.304688 -0.6875 7.683594 -0.867188 C 8.058594 -1.042969 8.359375 -1.277344 8.574219 -1.5625 C 8.78125 -1.835938 8.929688 -2.125 9.015625 -2.421875 C 9.101562 -2.71875 9.144531 -3.019531 9.144531 -3.324219 L 9.144531 -7.742188 C 9.144531 -8.304688 9.105469 -8.761719 9.023438 -9.121094 C 8.941406 -9.476562 8.824219 -9.710938 8.667969 -9.820312 C 8.488281 -9.949219 8.246094 -10.046875 7.941406 -10.117188 C 7.636719 -10.1875 7.402344 -10.230469 7.238281 -10.238281 L 7.238281 -10.777344 L 11.644531 -10.777344 Z "/>
</g>
<g id="glyph-0-12">
<path d="M 11.242188 0 L 8.339844 0 C 7.695312 -1.007812 7.117188 -1.878906 6.597656 -2.613281 C 6.078125 -3.347656 5.515625 -4.105469 4.910156 -4.882812 L 3.804688 -4.882812 L 3.804688 -1.464844 C 3.804688 -1.289062 3.832031 -1.132812 3.890625 -1 C 3.945312 -0.863281 4.0625 -0.761719 4.246094 -0.691406 C 4.335938 -0.65625 4.496094 -0.621094 4.722656 -0.59375 C 4.953125 -0.5625 5.144531 -0.542969 5.300781 -0.539062 L 5.300781 0 L 0.746094 0 L 0.746094 -0.539062 C 0.867188 -0.550781 1.042969 -0.566406 1.273438 -0.59375 C 1.503906 -0.617188 1.664062 -0.652344 1.753906 -0.691406 C 1.90625 -0.757812 2.015625 -0.851562 2.085938 -0.980469 C 2.152344 -1.105469 2.1875 -1.269531 2.1875 -1.464844 L 2.1875 -9.257812 C 2.1875 -9.4375 2.164062 -9.59375 2.113281 -9.730469 C 2.0625 -9.867188 1.941406 -9.96875 1.753906 -10.042969 C 1.628906 -10.085938 1.464844 -10.128906 1.261719 -10.167969 C 1.058594 -10.203125 0.886719 -10.230469 0.746094 -10.238281 L 0.746094 -10.777344 L 5.71875 -10.777344 C 6.175781 -10.777344 6.601562 -10.730469 7.003906 -10.636719 C 7.402344 -10.542969 7.765625 -10.394531 8.089844 -10.1875 C 8.402344 -9.984375 8.652344 -9.71875 8.839844 -9.390625 C 9.027344 -9.066406 9.121094 -8.671875 9.121094 -8.210938 C 9.121094 -7.796875 9.058594 -7.429688 8.933594 -7.109375 C 8.804688 -6.789062 8.617188 -6.515625 8.371094 -6.28125 C 8.144531 -6.0625 7.871094 -5.875 7.550781 -5.714844 C 7.230469 -5.554688 6.878906 -5.421875 6.496094 -5.308594 C 7.027344 -4.605469 7.46875 -4.011719 7.820312 -3.53125 C 8.171875 -3.050781 8.601562 -2.464844 9.113281 -1.777344 C 9.335938 -1.472656 9.539062 -1.25 9.71875 -1.105469 C 9.898438 -0.960938 10.078125 -0.84375 10.253906 -0.753906 C 10.386719 -0.6875 10.550781 -0.636719 10.746094 -0.601562 C 10.945312 -0.566406 11.109375 -0.542969 11.242188 -0.539062 L 11.242188 0 M 7.246094 -8.03125 C 7.246094 -8.683594 7.058594 -9.203125 6.683594 -9.582031 C 6.308594 -9.964844 5.78125 -10.15625 5.097656 -10.15625 L 3.804688 -10.15625 L 3.804688 -5.539062 L 4.800781 -5.539062 C 5.5 -5.539062 6.082031 -5.761719 6.546875 -6.207031 C 7.011719 -6.65625 7.246094 -7.261719 7.246094 -8.03125 Z "/>
</g>
<g id="glyph-0-13">
<path d="M 11.804688 -10.238281 C 11.660156 -10.234375 11.445312 -10.195312 11.152344 -10.117188 C 10.855469 -10.042969 10.648438 -9.964844 10.519531 -9.882812 C 10.335938 -9.753906 10.214844 -9.511719 10.152344 -9.152344 C 10.089844 -8.792969 10.058594 -8.335938 10.058594 -7.785156 L 10.058594 0.105469 L 9.394531 0.105469 L 2.863281 -8.710938 L 2.863281 -3.152344 C 2.863281 -2.53125 2.902344 -2.050781 2.980469 -1.714844 C 3.058594 -1.382812 3.179688 -1.144531 3.34375 -1.003906 C 3.457031 -0.890625 3.699219 -0.789062 4.0625 -0.691406 C 4.429688 -0.59375 4.667969 -0.542969 4.785156 -0.539062 L 4.785156 0 L 0.363281 0 L 0.363281 -0.539062 C 0.5 -0.550781 0.730469 -0.597656 1.054688 -0.6875 C 1.378906 -0.777344 1.582031 -0.855469 1.664062 -0.925781 C 1.839844 -1.070312 1.960938 -1.285156 2.027344 -1.574219 C 2.09375 -1.867188 2.125 -2.363281 2.125 -3.070312 L 2.125 -8.378906 C 2.125 -8.609375 2.085938 -8.84375 2.003906 -9.078125 C 1.925781 -9.308594 1.816406 -9.488281 1.679688 -9.617188 C 1.496094 -9.785156 1.25 -9.925781 0.9375 -10.046875 C 0.625 -10.164062 0.375 -10.230469 0.183594 -10.238281 L 0.183594 -10.777344 L 3.261719 -10.777344 L 9.320312 -2.5625 L 9.320312 -7.6875 C 9.320312 -8.316406 9.28125 -8.796875 9.199219 -9.132812 C 9.117188 -9.472656 9 -9.695312 8.847656 -9.804688 C 8.707031 -9.902344 8.476562 -9.996094 8.152344 -10.085938 C 7.832031 -10.179688 7.589844 -10.230469 7.421875 -10.238281 L 7.421875 -10.777344 L 11.804688 -10.777344 Z "/>
</g>
<g id="glyph-0-14">
<path d="M 5.453125 0 L 0.601562 0 L 0.601562 -0.539062 C 0.738281 -0.550781 0.933594 -0.566406 1.191406 -0.585938 C 1.449219 -0.605469 1.632812 -0.636719 1.738281 -0.675781 C 1.90625 -0.742188 2.027344 -0.832031 2.105469 -0.945312 C 2.179688 -1.058594 2.21875 -1.21875 2.21875 -1.421875 L 2.21875 -9.230469 C 2.21875 -9.40625 2.191406 -9.554688 2.132812 -9.671875 C 2.078125 -9.792969 1.945312 -9.890625 1.738281 -9.972656 C 1.585938 -10.035156 1.394531 -10.089844 1.164062 -10.144531 C 0.933594 -10.195312 0.746094 -10.230469 0.601562 -10.238281 L 0.601562 -10.777344 L 5.453125 -10.777344 L 5.453125 -10.238281 C 5.296875 -10.234375 5.109375 -10.214844 4.890625 -10.183594 C 4.675781 -10.148438 4.484375 -10.105469 4.320312 -10.058594 C 4.128906 -9.996094 4 -9.898438 3.933594 -9.761719 C 3.867188 -9.625 3.835938 -9.472656 3.835938 -9.304688 L 3.835938 -1.503906 C 3.835938 -1.335938 3.871094 -1.1875 3.945312 -1.058594 C 4.019531 -0.929688 4.144531 -0.828125 4.320312 -0.753906 C 4.429688 -0.710938 4.601562 -0.667969 4.84375 -0.617188 C 5.082031 -0.570312 5.285156 -0.542969 5.453125 -0.539062 Z "/>
</g>
<g id="glyph-0-15">
<path d="M 9.511719 -7.855469 L 8.984375 -7.855469 C 8.941406 -8.035156 8.859375 -8.253906 8.738281 -8.503906 C 8.617188 -8.753906 8.484375 -8.992188 8.339844 -9.214844 C 8.1875 -9.445312 8.019531 -9.648438 7.839844 -9.824219 C 7.660156 -10 7.484375 -10.101562 7.320312 -10.125 C 7.160156 -10.144531 6.964844 -10.160156 6.726562 -10.171875 C 6.484375 -10.179688 6.265625 -10.1875 6.0625 -10.1875 L 5.621094 -10.1875 L 5.621094 -1.566406 C 5.621094 -1.398438 5.65625 -1.246094 5.726562 -1.105469 C 5.796875 -0.964844 5.921875 -0.859375 6.097656 -0.78125 C 6.191406 -0.746094 6.382812 -0.699219 6.671875 -0.636719 C 6.964844 -0.578125 7.191406 -0.542969 7.351562 -0.539062 L 7.351562 0 L 2.261719 0 L 2.261719 -0.539062 C 2.40625 -0.550781 2.621094 -0.570312 2.914062 -0.601562 C 3.203125 -0.628906 3.40625 -0.667969 3.515625 -0.714844 C 3.683594 -0.78125 3.808594 -0.875 3.886719 -1 C 3.964844 -1.121094 4.003906 -1.289062 4.003906 -1.496094 L 4.003906 -10.1875 L 3.5625 -10.1875 C 3.40625 -10.1875 3.210938 -10.183594 2.976562 -10.175781 C 2.746094 -10.167969 2.523438 -10.148438 2.308594 -10.125 C 2.140625 -10.105469 1.96875 -10.003906 1.789062 -9.824219 C 1.609375 -9.644531 1.441406 -9.441406 1.292969 -9.214844 C 1.140625 -8.984375 1.003906 -8.742188 0.890625 -8.488281 C 0.773438 -8.234375 0.691406 -8.019531 0.644531 -7.855469 L 0.113281 -7.855469 L 0.113281 -10.777344 L 9.511719 -10.777344 Z "/>
</g>
</g>
</defs>
<g fill="rgb(100%, 100%, 0%)" fill-opacity="1">
<use xlink:href="#glyph-0-0" x="30" y="34.264648"/>
<use xlink:href="#glyph-0-1" x="40" y="34.264648"/>
<use xlink:href="#glyph-0-2" x="49" y="34.264648"/>
<use xlink:href="#glyph-0-0" x="64" y="34.264648"/>
<use xlink:href="#glyph-0-3" x="74" y="34.264648"/>
<use xlink:href="#glyph-0-4" x="84" y="34.264648"/>
<use xlink:href="#glyph-0-5" x="93" y="34.264648"/>
<use xlink:href="#glyph-0-6" x="97" y="34.264648"/>
<use xlink:href="#glyph-0-7" x="107" y="34.264648"/>
<use xlink:href="#glyph-0-8" x="120" y="34.264648"/>
<use xlink:href="#glyph-0-6" x="130" y="34.264648"/>
<use xlink:href="#glyph-0-9" x="140" y="34.264648"/>
<use xlink:href="#glyph-0-5" x="151" y="34.264648"/>
<use xlink:href="#glyph-0-3" x="155" y="34.264648"/>
<use xlink:href="#glyph-0-10" x="165" y="34.264648"/>
<use xlink:href="#glyph-0-11" x="177" y="34.264648"/>
<use xlink:href="#glyph-0-12" x="189" y="34.264648"/>
<use xlink:href="#glyph-0-5" x="200" y="34.264648"/>
<use xlink:href="#glyph-0-11" x="204" y="34.264648"/>
<use xlink:href="#glyph-0-13" x="216" y="34.264648"/>
<use xlink:href="#glyph-0-14" x="228" y="34.264648"/>
<use xlink:href="#glyph-0-15" x="234" y="34.264648"/>
<use xlink:href="#glyph-0-4" x="244" y="34.264648"/>
</g>
</svg>
