<?xml version="1.0" encoding="UTF-8"?>
<svg xmlns="http://www.w3.org/2000/svg" xmlns:xlink="http://www.w3.org/1999/xlink" width="854" height="480" viewBox="0 0 854 480">
<defs>
<g>
<g id="glyph-0-0">
<path d="M 8.152344 -6.730469 L 7.703125 -6.730469 C 7.664062 -6.886719 7.59375 -7.074219 7.488281 -7.289062 C 7.386719 -7.503906 7.273438 -7.707031 7.148438 -7.898438 C 7.015625 -8.097656 6.875 -8.273438 6.71875 -8.421875 C 6.566406 -8.570312 6.417969 -8.65625 6.273438 -8.679688 C 6.136719 -8.695312 5.96875 -8.707031 5.765625 -8.71875 C 5.558594 -8.726562 5.371094 -8.730469 5.195312 -8.730469 L 4.816406 -8.730469 L 4.816406 -1.339844 C 4.816406 -1.199219 4.847656 -1.066406 4.910156 -0.945312 C 4.96875 -0.828125 5.074219 -0.734375 5.226562 -0.671875 C 5.304688 -0.640625 5.46875 -0.597656 5.71875 -0.546875 C 5.96875 -0.496094 6.164062 -0.464844 6.300781 -0.460938 L 6.300781 0 L 1.941406 0 L 1.941406 -0.460938 C 2.0625 -0.472656 2.246094 -0.488281 2.496094 -0.515625 C 2.746094 -0.539062 2.917969 -0.574219 3.015625 -0.613281 C 3.15625 -0.667969 3.261719 -0.75 3.328125 -0.855469 C 3.398438 -0.960938 3.429688 -1.105469 3.429688 -1.28125 L 3.429688 -8.730469 L 3.054688 -8.730469 C 2.917969 -8.730469 2.75 -8.726562 2.550781 -8.71875 C 2.351562 -8.714844 2.160156 -8.699219 1.980469 -8.679688 C 1.835938 -8.660156 1.6875 -8.574219 1.53125 -8.421875 C 1.378906 -8.265625 1.238281 -8.09375 1.105469 -7.898438 C 0.976562 -7.703125 0.863281 -7.496094 0.761719 -7.273438 C 0.660156 -7.054688 0.59375 -6.875 0.554688 -6.730469 L 0.0976562 -6.730469 L 0.0976562 -9.238281 L 8.152344 -9.238281 Z "/>
</g>
<g id="glyph-0-1">
<path d="M 7.453125 0 L 4.296875 0 L 4.296875 -0.429688 C 4.398438 -0.4375 4.507812 -0.445312 4.628906 -0.457031 C 4.75 -0.464844 4.851562 -0.480469 4.929688 -0.507812 C 5.050781 -0.546875 5.140625 -0.617188 5.199219 -0.710938 C 5.257812 -0.808594 5.285156 -0.9375 5.285156 -1.09375 L 5.285156 -4.394531 C 5.285156 -4.851562 5.179688 -5.203125 4.964844 -5.449219 C 4.75 -5.695312 4.484375 -5.820312 4.175781 -5.820312 C 3.949219 -5.820312 3.742188 -5.785156 3.546875 -5.710938 C 3.355469 -5.640625 3.179688 -5.554688 3.027344 -5.449219 C 2.878906 -5.339844 2.765625 -5.230469 2.6875 -5.125 C 2.609375 -5.015625 2.550781 -4.925781 2.507812 -4.851562 L 2.507812 -1.160156 C 2.507812 -1.011719 2.535156 -0.890625 2.59375 -0.792969 C 2.652344 -0.699219 2.742188 -0.625 2.863281 -0.574219 C 2.960938 -0.53125 3.058594 -0.496094 3.160156 -0.476562 C 3.261719 -0.453125 3.375 -0.4375 3.496094 -0.429688 L 3.496094 0 L 0.351562 0 L 0.351562 -0.429688 C 0.449219 -0.4375 0.554688 -0.449219 0.660156 -0.457031 C 0.769531 -0.46875 0.859375 -0.484375 0.933594 -0.507812 C 1.054688 -0.546875 1.144531 -0.617188 1.203125 -0.714844 C 1.265625 -0.8125 1.296875 -0.9375 1.296875 -1.09375 L 1.296875 -8.574219 C 1.296875 -8.722656 1.261719 -8.867188 1.195312 -9.015625 C 1.128906 -9.164062 1.039062 -9.273438 0.929688 -9.347656 C 0.851562 -9.40625 0.714844 -9.445312 0.515625 -9.46875 C 0.320312 -9.492188 0.160156 -9.507812 0.0390625 -9.519531 L 0.0390625 -9.933594 L 2.414062 -10.078125 L 2.507812 -9.980469 L 2.507812 -5.5 L 2.53125 -5.5 C 2.675781 -5.644531 2.804688 -5.769531 2.925781 -5.882812 C 3.042969 -5.992188 3.195312 -6.109375 3.386719 -6.230469 C 3.550781 -6.335938 3.746094 -6.421875 3.96875 -6.492188 C 4.195312 -6.558594 4.445312 -6.59375 4.722656 -6.59375 C 5.296875 -6.59375 5.738281 -6.414062 6.046875 -6.050781 C 6.355469 -5.6875 6.511719 -5.167969 6.511719 -4.484375 L 6.511719 -1.144531 C 6.511719 -0.992188 6.539062 -0.871094 6.59375 -0.777344 C 6.648438 -0.683594 6.738281 -0.613281 6.863281 -0.558594 C 6.964844 -0.519531 7.054688 -0.492188 7.136719 -0.472656 C 7.21875 -0.453125 7.324219 -0.4375 7.453125 -0.429688 Z "/>
</g>
<g id="glyph-0-2">
<path d="M 6.171875 -1.511719 C 5.902344 -1 5.542969 -0.589844 5.089844 -0.285156 C 4.640625 0.015625 4.121094 0.167969 3.535156 0.167969 C 3.019531 0.167969 2.566406 0.078125 2.179688 -0.105469 C 1.789062 -0.285156 1.46875 -0.535156 1.21875 -0.847656 C 0.964844 -1.160156 0.777344 -1.523438 0.652344 -1.941406 C 0.53125 -2.355469 0.46875 -2.796875 0.46875 -3.261719 C 0.46875 -3.679688 0.535156 -4.085938 0.667969 -4.488281 C 0.800781 -4.890625 0.992188 -5.25 1.25 -5.574219 C 1.496094 -5.882812 1.804688 -6.128906 2.171875 -6.316406 C 2.539062 -6.507812 2.949219 -6.601562 3.40625 -6.601562 C 3.875 -6.601562 4.273438 -6.527344 4.609375 -6.378906 C 4.945312 -6.234375 5.214844 -6.03125 5.421875 -5.773438 C 5.621094 -5.53125 5.769531 -5.246094 5.867188 -4.914062 C 5.964844 -4.585938 6.015625 -4.226562 6.015625 -3.839844 L 6.015625 -3.410156 L 1.765625 -3.410156 C 1.765625 -2.988281 1.804688 -2.605469 1.882812 -2.261719 C 1.964844 -1.917969 2.09375 -1.617188 2.265625 -1.355469 C 2.433594 -1.105469 2.65625 -0.90625 2.929688 -0.757812 C 3.203125 -0.613281 3.527344 -0.539062 3.90625 -0.539062 C 4.292969 -0.539062 4.625 -0.632812 4.90625 -0.8125 C 5.183594 -0.992188 5.457031 -1.320312 5.714844 -1.789062 L 6.171875 -1.511719 M 4.734375 -3.957031 C 4.734375 -4.199219 4.710938 -4.460938 4.671875 -4.738281 C 4.628906 -5.015625 4.5625 -5.246094 4.472656 -5.433594 C 4.371094 -5.628906 4.234375 -5.792969 4.0625 -5.917969 C 3.890625 -6.042969 3.664062 -6.105469 3.390625 -6.105469 C 2.9375 -6.105469 2.558594 -5.917969 2.257812 -5.539062 C 1.953125 -5.160156 1.789062 -4.632812 1.765625 -3.957031 Z "/>
</g>
<g id="glyph-0-3">
</g>
<g id="glyph-0-4">
<path d="M 11.757812 0 L 7.675781 0 L 7.675781 -0.460938 C 7.824219 -0.464844 8.011719 -0.480469 8.246094 -0.507812 C 8.476562 -0.535156 8.636719 -0.570312 8.722656 -0.617188 C 8.859375 -0.699219 8.957031 -0.796875 9.019531 -0.902344 C 9.082031 -1.007812 9.113281 -1.140625 9.113281 -1.300781 L 9.113281 -8.019531 L 9.015625 -8.019531 L 5.867188 -0.148438 L 5.539062 -0.148438 L 2.539062 -8.183594 L 2.453125 -8.183594 L 2.453125 -2.667969 C 2.453125 -2.136719 2.488281 -1.730469 2.554688 -1.453125 C 2.621094 -1.175781 2.726562 -0.972656 2.863281 -0.851562 C 2.960938 -0.761719 3.15625 -0.675781 3.457031 -0.59375 C 3.757812 -0.511719 3.953125 -0.464844 4.042969 -0.460938 L 4.042969 0 L 0.3125 0 L 0.3125 -0.460938 C 0.507812 -0.480469 0.710938 -0.511719 0.925781 -0.558594 C 1.140625 -0.609375 1.308594 -0.679688 1.425781 -0.773438 C 1.578125 -0.894531 1.683594 -1.082031 1.738281 -1.335938 C 1.792969 -1.585938 1.824219 -2.007812 1.824219 -2.597656 L 1.824219 -7.324219 C 1.824219 -7.597656 1.789062 -7.820312 1.726562 -7.996094 C 1.660156 -8.167969 1.566406 -8.308594 1.445312 -8.417969 C 1.3125 -8.535156 1.144531 -8.621094 0.949219 -8.679688 C 0.753906 -8.734375 0.5625 -8.765625 0.371094 -8.777344 L 0.371094 -9.238281 L 3.519531 -9.238281 L 6.167969 -2.304688 L 8.425781 -8.105469 C 8.507812 -8.316406 8.578125 -8.539062 8.636719 -8.773438 C 8.695312 -9.003906 8.726562 -9.160156 8.730469 -9.238281 L 11.746094 -9.238281 L 11.746094 -8.777344 C 11.625 -8.773438 11.46875 -8.753906 11.277344 -8.71875 C 11.089844 -8.683594 10.953125 -8.648438 10.867188 -8.621094 C 10.71875 -8.566406 10.617188 -8.480469 10.566406 -8.359375 C 10.515625 -8.238281 10.488281 -8.105469 10.488281 -7.960938 L 10.488281 -1.300781 C 10.488281 -1.148438 10.515625 -1.023438 10.566406 -0.917969 C 10.617188 -0.8125 10.71875 -0.722656 10.867188 -0.644531 C 10.945312 -0.601562 11.082031 -0.5625 11.28125 -0.523438 C 11.480469 -0.488281 11.640625 -0.464844 11.757812 -0.460938 Z "/>
</g>
<g id="glyph-0-5">
<path d="M -0.0195312 2.097656 C -0.0195312 1.878906 0.0390625 1.703125 0.160156 1.566406 C 0.277344 1.429688 0.425781 1.359375 0.605469 1.359375 C 0.746094 1.359375 0.863281 1.386719 0.964844 1.4375 C 1.0625 1.488281 1.152344 1.554688 1.230469 1.636719 C 1.296875 1.703125 1.363281 1.792969 1.4375 1.902344 C 1.511719 2.015625 1.570312 2.109375 1.613281 2.179688 C 1.832031 2.0625 2.089844 1.757812 2.390625 1.265625 C 2.695312 0.769531 2.910156 0.339844 3.046875 -0.0351562 C 2.632812 -1.0625 2.261719 -1.980469 1.925781 -2.792969 C 1.59375 -3.605469 1.242188 -4.445312 0.878906 -5.3125 C 0.796875 -5.511719 0.65625 -5.667969 0.460938 -5.777344 C 0.265625 -5.886719 0.0703125 -5.960938 -0.125 -5.988281 L -0.125 -6.417969 L 2.808594 -6.417969 L 2.808594 -5.964844 C 2.675781 -5.960938 2.519531 -5.933594 2.339844 -5.882812 C 2.15625 -5.832031 2.066406 -5.773438 2.066406 -5.710938 C 2.066406 -5.683594 2.074219 -5.640625 2.09375 -5.578125 C 2.113281 -5.519531 2.136719 -5.457031 2.164062 -5.390625 C 2.328125 -4.960938 2.578125 -4.34375 2.914062 -3.535156 C 3.253906 -2.726562 3.515625 -2.078125 3.703125 -1.59375 C 3.898438 -2.054688 4.101562 -2.535156 4.3125 -3.03125 C 4.523438 -3.53125 4.757812 -4.117188 5.019531 -4.792969 C 5.046875 -4.875 5.09375 -4.988281 5.148438 -5.132812 C 5.203125 -5.28125 5.234375 -5.402344 5.234375 -5.507812 C 5.234375 -5.621094 5.132812 -5.726562 4.9375 -5.824219 C 4.738281 -5.921875 4.550781 -5.980469 4.375 -6.003906 L 4.375 -6.417969 L 6.757812 -6.417969 L 6.757812 -6.015625 C 6.628906 -5.992188 6.457031 -5.917969 6.242188 -5.789062 C 6.03125 -5.664062 5.871094 -5.480469 5.769531 -5.246094 C 5.25 -4.050781 4.792969 -2.957031 4.390625 -1.972656 C 3.988281 -0.988281 3.683594 -0.261719 3.476562 0.203125 C 3.203125 0.808594 2.957031 1.285156 2.742188 1.625 C 2.527344 1.964844 2.320312 2.234375 2.117188 2.429688 C 1.917969 2.609375 1.734375 2.734375 1.570312 2.796875 C 1.410156 2.859375 1.242188 2.890625 1.066406 2.890625 C 0.730469 2.890625 0.464844 2.808594 0.269531 2.648438 C 0.078125 2.488281 -0.0195312 2.304688 -0.0195312 2.097656 Z "/>
</g>
<g id="glyph-0-6">
<path d="M 4.707031 -3.144531 C 4.886719 -2.988281 5.023438 -2.808594 5.117188 -2.605469 C 5.210938 -2.398438 5.261719 -2.152344 5.261719 -1.855469 C 5.261719 -1.261719 5.039062 -0.773438 4.59375 -0.398438 C 4.148438 -0.0195312 3.570312 0.167969 2.863281 0.167969 C 2.492188 0.167969 2.148438 0.101562 1.832031 -0.03125 C 1.519531 -0.167969 1.292969 -0.289062 1.160156 -0.402344 L 1.027344 0.0195312 L 0.539062 0.0195312 L 0.476562 -2.214844 L 0.925781 -2.214844 C 0.960938 -2.042969 1.03125 -1.84375 1.144531 -1.617188 C 1.257812 -1.390625 1.394531 -1.1875 1.554688 -1.003906 C 1.726562 -0.8125 1.929688 -0.652344 2.164062 -0.523438 C 2.402344 -0.390625 2.667969 -0.324219 2.960938 -0.324219 C 3.378906 -0.324219 3.699219 -0.421875 3.925781 -0.609375 C 4.152344 -0.800781 4.265625 -1.070312 4.265625 -1.425781 C 4.265625 -1.609375 4.226562 -1.765625 4.15625 -1.898438 C 4.085938 -2.03125 3.980469 -2.144531 3.839844 -2.246094 C 3.699219 -2.347656 3.523438 -2.4375 3.3125 -2.515625 C 3.105469 -2.597656 2.875 -2.675781 2.617188 -2.753906 C 2.414062 -2.816406 2.1875 -2.898438 1.9375 -3.003906 C 1.6875 -3.109375 1.472656 -3.234375 1.296875 -3.378906 C 1.105469 -3.53125 0.949219 -3.71875 0.828125 -3.9375 C 0.707031 -4.160156 0.644531 -4.421875 0.644531 -4.71875 C 0.644531 -5.246094 0.839844 -5.691406 1.230469 -6.054688 C 1.621094 -6.417969 2.144531 -6.601562 2.800781 -6.601562 C 3.050781 -6.601562 3.308594 -6.570312 3.570312 -6.503906 C 3.832031 -6.4375 4.046875 -6.359375 4.210938 -6.269531 L 4.363281 -6.609375 L 4.832031 -6.609375 L 4.929688 -4.542969 L 4.480469 -4.542969 C 4.386719 -5.007812 4.191406 -5.382812 3.890625 -5.671875 C 3.589844 -5.960938 3.21875 -6.105469 2.785156 -6.105469 C 2.429688 -6.105469 2.152344 -6.015625 1.945312 -5.839844 C 1.742188 -5.660156 1.640625 -5.441406 1.640625 -5.1875 C 1.640625 -4.992188 1.675781 -4.832031 1.742188 -4.699219 C 1.808594 -4.570312 1.910156 -4.460938 2.042969 -4.367188 C 2.175781 -4.28125 2.339844 -4.199219 2.535156 -4.125 C 2.734375 -4.046875 2.976562 -3.960938 3.269531 -3.867188 C 3.554688 -3.777344 3.824219 -3.667969 4.078125 -3.546875 C 4.332031 -3.425781 4.542969 -3.292969 4.707031 -3.144531 Z "/>
</g>
<g id="glyph-0-7">
<path d="M 4.433594 -0.28125 C 4.152344 -0.164062 3.882812 -0.0625 3.632812 0.015625 C 3.382812 0.0976562 3.074219 0.136719 2.707031 0.136719 C 2.171875 0.136719 1.792969 0 1.570312 -0.269531 C 1.351562 -0.542969 1.242188 -0.925781 1.242188 -1.417969 L 1.242188 -5.769531 L 0.0859375 -5.769531 L 0.0859375 -6.394531 L 1.269531 -6.394531 L 1.269531 -8.390625 L 2.453125 -8.390625 L 2.453125 -6.394531 L 4.296875 -6.394531 L 4.296875 -5.769531 L 2.46875 -5.769531 L 2.46875 -2.179688 C 2.46875 -1.910156 2.476562 -1.6875 2.496094 -1.507812 C 2.515625 -1.328125 2.5625 -1.167969 2.636719 -1.035156 C 2.707031 -0.910156 2.808594 -0.8125 2.949219 -0.75 C 3.089844 -0.683594 3.273438 -0.652344 3.507812 -0.652344 C 3.617188 -0.652344 3.777344 -0.660156 3.988281 -0.679688 C 4.199219 -0.699219 4.347656 -0.726562 4.433594 -0.753906 Z "/>
</g>
<g id="glyph-0-8">
<path d="M 5.382812 -5.59375 C 5.382812 -5.371094 5.328125 -5.175781 5.222656 -5.003906 C 5.113281 -4.832031 4.945312 -4.746094 4.71875 -4.746094 C 4.476562 -4.746094 4.292969 -4.808594 4.164062 -4.933594 C 4.035156 -5.0625 3.972656 -5.199219 3.972656 -5.351562 C 3.972656 -5.445312 3.980469 -5.535156 3.992188 -5.613281 C 4.007812 -5.691406 4.023438 -5.769531 4.035156 -5.847656 C 3.832031 -5.847656 3.59375 -5.765625 3.320312 -5.597656 C 3.046875 -5.433594 2.816406 -5.199219 2.625 -4.894531 L 2.625 -1.160156 C 2.625 -1.007812 2.652344 -0.882812 2.710938 -0.789062 C 2.769531 -0.691406 2.863281 -0.621094 2.988281 -0.574219 C 3.097656 -0.53125 3.238281 -0.496094 3.40625 -0.476562 C 3.578125 -0.453125 3.726562 -0.4375 3.855469 -0.429688 L 3.855469 0 L 0.46875 0 L 0.46875 -0.429688 C 0.570312 -0.4375 0.671875 -0.445312 0.777344 -0.457031 C 0.882812 -0.464844 0.976562 -0.480469 1.054688 -0.507812 C 1.175781 -0.546875 1.265625 -0.613281 1.324219 -0.710938 C 1.382812 -0.808594 1.414062 -0.9375 1.414062 -1.09375 L 1.414062 -5.054688 C 1.414062 -5.1875 1.382812 -5.320312 1.316406 -5.449219 C 1.253906 -5.578125 1.167969 -5.683594 1.054688 -5.761719 C 0.972656 -5.8125 0.875 -5.851562 0.761719 -5.875 C 0.648438 -5.898438 0.527344 -5.914062 0.398438 -5.925781 L 0.398438 -6.355469 L 2.53125 -6.496094 L 2.625 -6.40625 L 2.625 -5.5 L 2.65625 -5.5 C 2.925781 -5.851562 3.226562 -6.121094 3.554688 -6.300781 C 3.882812 -6.484375 4.1875 -6.574219 4.460938 -6.574219 C 4.734375 -6.574219 4.957031 -6.488281 5.125 -6.308594 C 5.296875 -6.128906 5.382812 -5.890625 5.382812 -5.59375 Z "/>
</g>
</g>
</defs>
<g fill="rgb(100%, 100%, 100%)" fill-opacity="1">
<use xlink:href="#glyph-0-0" x="30" y="32.226562"/>
<use xlink:href="#glyph-0-1" x="38" y="32.226562"/>
<use xlink:href="#glyph-0-2" x="46" y="32.226562"/>
<use xlink:href="#glyph-0-3" x="52" y="32.226562"/>
<use xlink:href="#glyph-0-4" x="55" y="32.226562"/>
<use xlink:href="#glyph-0-5" x="67" y="32.226562"/>
<use xlink:href="#glyph-0-6" x="74" y="32.226562"/>
<use xlink:href="#glyph-0-7" x="80" y="32.226562"/>
<use xlink:href="#glyph-0-2" x="85" y="32.226562"/>
<use xlink:href="#glyph-0-8" x="91" y="32.226562"/>
<use xlink:href="#glyph-0-5" x="96" y="32.226562"/>
</g>
</svg>
