<?xml version="1.0" encoding="UTF-8"?>
<svg xmlns="http://www.w3.org/2000/svg" xmlns:xlink="http://www.w3.org/1999/xlink" width="854" height="480" viewBox="0 0 854 480">
<defs>
<g>
<g id="glyph-0-0">
<path d="M 5.109375 -4.515625 C 4.960938 -4.492188 4.820312 -4.4375 4.691406 -4.359375 C 4.558594 -4.277344 4.445312 -4.136719 4.351562 -3.9375 C 4.160156 -3.5 3.960938 -3.042969 3.753906 -2.570312 C 3.550781 -2.097656 3.335938 -1.601562 3.117188 -1.078125 C 3.050781 -0.929688 2.980469 -0.75 2.90625 -0.546875 C 2.835938 -0.34375 2.765625 -0.144531 2.703125 0.0429688 L 2.324219 0.0429688 C 2.015625 -0.722656 1.730469 -1.417969 1.46875 -2.046875 C 1.210938 -2.679688 0.9375 -3.324219 0.660156 -3.984375 C 0.59375 -4.132812 0.488281 -4.25 0.34375 -4.332031 C 0.199219 -4.417969 0.0546875 -4.46875 -0.09375 -4.492188 L -0.09375 -4.8125 L 2.136719 -4.8125 L 2.136719 -4.472656 C 2.039062 -4.46875 1.914062 -4.449219 1.769531 -4.410156 C 1.621094 -4.375 1.550781 -4.324219 1.550781 -4.257812 C 1.550781 -4.25 1.558594 -4.222656 1.574219 -4.183594 C 1.589844 -4.140625 1.605469 -4.09375 1.621094 -4.042969 C 1.753906 -3.710938 1.945312 -3.25 2.1875 -2.652344 C 2.429688 -2.058594 2.628906 -1.578125 2.78125 -1.214844 C 2.898438 -1.496094 3.046875 -1.84375 3.222656 -2.257812 C 3.402344 -2.675781 3.59375 -3.140625 3.796875 -3.652344 C 3.828125 -3.742188 3.859375 -3.824219 3.890625 -3.898438 C 3.917969 -3.976562 3.933594 -4.054688 3.933594 -4.132812 C 3.933594 -4.1875 3.90625 -4.234375 3.851562 -4.28125 C 3.800781 -4.324219 3.734375 -4.363281 3.660156 -4.394531 C 3.585938 -4.425781 3.511719 -4.453125 3.441406 -4.46875 C 3.371094 -4.484375 3.3125 -4.496094 3.265625 -4.5 L 3.265625 -4.8125 L 5.109375 -4.8125 Z "/>
</g>
<g id="glyph-0-1">
<path d="M 3.53125 -2.359375 C 3.664062 -2.242188 3.765625 -2.105469 3.835938 -1.953125 C 3.910156 -1.800781 3.945312 -1.613281 3.945312 -1.390625 C 3.945312 -0.945312 3.777344 -0.582031 3.445312 -0.296875 C 3.109375 -0.015625 2.679688 0.125 2.148438 0.125 C 1.867188 0.125 1.609375 0.078125 1.375 -0.0234375 C 1.136719 -0.125 0.96875 -0.21875 0.867188 -0.304688 L 0.773438 0.015625 L 0.40625 0.015625 L 0.355469 -1.660156 L 0.695312 -1.660156 C 0.71875 -1.53125 0.773438 -1.382812 0.859375 -1.214844 C 0.945312 -1.042969 1.046875 -0.890625 1.167969 -0.753906 C 1.292969 -0.609375 1.445312 -0.488281 1.625 -0.390625 C 1.800781 -0.292969 2 -0.242188 2.222656 -0.242188 C 2.535156 -0.242188 2.773438 -0.316406 2.945312 -0.457031 C 3.113281 -0.601562 3.199219 -0.804688 3.199219 -1.070312 C 3.199219 -1.207031 3.171875 -1.324219 3.117188 -1.421875 C 3.0625 -1.523438 2.984375 -1.609375 2.882812 -1.683594 C 2.773438 -1.757812 2.640625 -1.828125 2.484375 -1.886719 C 2.328125 -1.949219 2.15625 -2.007812 1.960938 -2.066406 C 1.808594 -2.109375 1.640625 -2.171875 1.453125 -2.253906 C 1.265625 -2.332031 1.105469 -2.425781 0.972656 -2.535156 C 0.828125 -2.648438 0.710938 -2.789062 0.621094 -2.953125 C 0.527344 -3.121094 0.484375 -3.316406 0.484375 -3.539062 C 0.484375 -3.933594 0.628906 -4.265625 0.921875 -4.539062 C 1.214844 -4.8125 1.609375 -4.949219 2.101562 -4.953125 C 2.289062 -4.949219 2.480469 -4.925781 2.679688 -4.878906 C 2.875 -4.828125 3.035156 -4.769531 3.160156 -4.703125 L 3.273438 -4.957031 L 3.625 -4.957031 L 3.695312 -3.40625 L 3.359375 -3.40625 C 3.289062 -3.753906 3.144531 -4.035156 2.917969 -4.253906 C 2.691406 -4.472656 2.414062 -4.578125 2.089844 -4.578125 C 1.824219 -4.578125 1.613281 -4.511719 1.460938 -4.378906 C 1.308594 -4.242188 1.230469 -4.082031 1.230469 -3.890625 C 1.230469 -3.746094 1.253906 -3.625 1.304688 -3.523438 C 1.355469 -3.429688 1.433594 -3.34375 1.53125 -3.277344 C 1.632812 -3.210938 1.753906 -3.148438 1.902344 -3.09375 C 2.050781 -3.035156 2.234375 -2.972656 2.453125 -2.898438 C 2.664062 -2.832031 2.867188 -2.753906 3.058594 -2.660156 C 3.25 -2.570312 3.40625 -2.46875 3.53125 -2.359375 Z "/>
</g>
</g>
</defs>
<g fill="rgb(100%, 100%, 100%)" fill-opacity="1">
<use xlink:href="#glyph-0-0" x="30" y="29.169922"/>
<use xlink:href="#glyph-0-1" x="35" y="29.169922"/>
</g>
</svg>
