<?xml version="1.0" encoding="UTF-8"?>
<svg xmlns="http://www.w3.org/2000/svg" xmlns:xlink="http://www.w3.org/1999/xlink" width="854" height="480" viewBox="0 0 854 480">
<defs>
<g>
<g id="glyph-0-0">
<path d="M 0.207031 -0.914062 C 0.207031 -1.074219 0.230469 -1.21875 0.273438 -1.34375 C 0.316406 -1.472656 0.378906 -1.578125 0.460938 -1.664062 C 0.542969 -1.75 0.640625 -1.816406 0.757812 -1.863281 C 0.871094 -1.90625 1 -1.929688 1.140625 -1.929688 C 1.199219 -1.929688 1.261719 -1.925781 1.320312 -1.917969 C 1.378906 -1.910156 1.4375 -1.898438 1.492188 -1.882812 L 1.492188 -2.683594 L 1.824219 -2.683594 L 1.824219 0 L 1.527344 0 L 1.515625 -0.359375 C 1.425781 -0.226562 1.324219 -0.128906 1.21875 -0.0625 C 1.109375 0 0.992188 0.0351562 0.867188 0.0351562 C 0.757812 0.0351562 0.664062 0.0117188 0.582031 -0.0351562 C 0.496094 -0.078125 0.429688 -0.144531 0.375 -0.226562 C 0.316406 -0.308594 0.277344 -0.410156 0.25 -0.527344 C 0.222656 -0.640625 0.207031 -0.773438 0.207031 -0.914062 M 0.546875 -0.933594 C 0.546875 -0.703125 0.578125 -0.53125 0.648438 -0.417969 C 0.714844 -0.304688 0.808594 -0.25 0.933594 -0.25 C 1.019531 -0.25 1.105469 -0.285156 1.199219 -0.359375 C 1.292969 -0.433594 1.390625 -0.546875 1.492188 -0.691406 L 1.492188 -1.578125 C 1.4375 -1.601562 1.378906 -1.621094 1.3125 -1.636719 C 1.246094 -1.648438 1.179688 -1.65625 1.117188 -1.65625 C 0.9375 -1.65625 0.796875 -1.597656 0.695312 -1.480469 C 0.59375 -1.363281 0.546875 -1.183594 0.546875 -0.933594 Z "/>
</g>
<g id="glyph-0-1">
<path d="M 1.996094 -2.375 C 1.824219 -2.414062 1.671875 -2.429688 1.546875 -2.429688 C 1.25 -2.429688 1.101562 -2.273438 1.101562 -1.964844 L 1.101562 -1.628906 L 1.9375 -1.628906 L 1.9375 -1.355469 L 1.101562 -1.355469 L 1.101562 0 L 0.765625 0 L 0.765625 -1.355469 L 0.152344 -1.355469 L 0.152344 -1.628906 L 0.765625 -1.628906 L 0.765625 -1.945312 C 0.765625 -2.453125 1.03125 -2.707031 1.558594 -2.707031 C 1.691406 -2.707031 1.835938 -2.691406 1.996094 -2.660156 Z "/>
</g>
<g id="glyph-0-2">
<path d="M 1.589844 0.777344 L 0.65625 0.777344 L 0.65625 -2.75 L 1.589844 -2.75 L 1.589844 -2.484375 L 0.96875 -2.484375 L 0.96875 0.511719 L 1.589844 0.511719 Z "/>
</g>
<g id="glyph-0-3">
<path d="M 1.289062 -2.683594 L 1.234375 -1.792969 L 0.90625 -1.792969 L 0.851562 -2.683594 Z "/>
</g>
<g id="glyph-0-4">
<path d="M 1.890625 -0.09375 C 1.691406 -0.0117188 1.484375 0.03125 1.265625 0.03125 C 0.914062 0.03125 0.644531 -0.0742188 0.457031 -0.285156 C 0.269531 -0.492188 0.175781 -0.804688 0.175781 -1.214844 C 0.175781 -1.414062 0.199219 -1.59375 0.253906 -1.753906 C 0.304688 -1.914062 0.378906 -2.050781 0.476562 -2.160156 C 0.570312 -2.273438 0.6875 -2.359375 0.824219 -2.421875 C 0.960938 -2.480469 1.113281 -2.511719 1.285156 -2.511719 C 1.398438 -2.511719 1.507812 -2.503906 1.605469 -2.484375 C 1.703125 -2.464844 1.796875 -2.433594 1.890625 -2.394531 L 1.890625 -2.058594 C 1.800781 -2.109375 1.707031 -2.148438 1.609375 -2.171875 C 1.515625 -2.199219 1.410156 -2.210938 1.296875 -2.210938 C 1.179688 -2.210938 1.074219 -2.191406 0.980469 -2.148438 C 0.882812 -2.101562 0.804688 -2.039062 0.738281 -1.957031 C 0.671875 -1.875 0.621094 -1.773438 0.585938 -1.652344 C 0.550781 -1.535156 0.535156 -1.398438 0.535156 -1.242188 C 0.535156 -0.921875 0.597656 -0.679688 0.730469 -0.515625 C 0.859375 -0.351562 1.050781 -0.273438 1.304688 -0.273438 C 1.410156 -0.273438 1.511719 -0.285156 1.609375 -0.308594 C 1.707031 -0.332031 1.800781 -0.367188 1.890625 -0.410156 Z "/>
</g>
<g id="glyph-0-5">
<path d="M 1.964844 -0.96875 C 1.964844 -0.820312 1.941406 -0.683594 1.902344 -0.5625 C 1.859375 -0.4375 1.800781 -0.332031 1.71875 -0.242188 C 1.640625 -0.15625 1.546875 -0.0859375 1.433594 -0.0390625 C 1.320312 0.0117188 1.191406 0.0351562 1.050781 0.0351562 C 0.914062 0.0351562 0.789062 0.0117188 0.683594 -0.03125 C 0.574219 -0.0703125 0.484375 -0.132812 0.40625 -0.214844 C 0.332031 -0.296875 0.273438 -0.402344 0.234375 -0.523438 C 0.195312 -0.644531 0.175781 -0.785156 0.175781 -0.941406 C 0.175781 -1.089844 0.195312 -1.226562 0.238281 -1.347656 C 0.277344 -1.46875 0.339844 -1.574219 0.417969 -1.664062 C 0.496094 -1.75 0.59375 -1.820312 0.703125 -1.867188 C 0.816406 -1.917969 0.945312 -1.941406 1.089844 -1.941406 C 1.226562 -1.941406 1.347656 -1.917969 1.457031 -1.878906 C 1.5625 -1.835938 1.65625 -1.773438 1.730469 -1.691406 C 1.804688 -1.609375 1.863281 -1.507812 1.902344 -1.386719 C 1.945312 -1.265625 1.964844 -1.125 1.964844 -0.96875 M 1.625 -0.953125 C 1.625 -1.070312 1.613281 -1.175781 1.585938 -1.261719 C 1.5625 -1.351562 1.523438 -1.421875 1.476562 -1.480469 C 1.425781 -1.542969 1.367188 -1.585938 1.300781 -1.613281 C 1.230469 -1.644531 1.152344 -1.660156 1.070312 -1.660156 C 0.96875 -1.660156 0.886719 -1.640625 0.816406 -1.601562 C 0.746094 -1.5625 0.6875 -1.511719 0.644531 -1.445312 C 0.597656 -1.382812 0.566406 -1.308594 0.542969 -1.222656 C 0.523438 -1.136719 0.511719 -1.046875 0.511719 -0.953125 C 0.511719 -0.835938 0.527344 -0.730469 0.550781 -0.644531 C 0.578125 -0.554688 0.613281 -0.480469 0.664062 -0.421875 C 0.710938 -0.363281 0.769531 -0.320312 0.835938 -0.289062 C 0.90625 -0.261719 0.984375 -0.246094 1.070312 -0.246094 C 1.167969 -0.246094 1.253906 -0.265625 1.324219 -0.304688 C 1.394531 -0.339844 1.449219 -0.394531 1.496094 -0.457031 C 1.539062 -0.523438 1.574219 -0.597656 1.59375 -0.683594 C 1.613281 -0.769531 1.625 -0.859375 1.625 -0.953125 Z "/>
</g>
<g id="glyph-0-6">
<path d="M 1.8125 -0.519531 C 1.8125 -0.453125 1.800781 -0.394531 1.78125 -0.339844 C 1.757812 -0.285156 1.726562 -0.238281 1.6875 -0.199219 C 1.648438 -0.15625 1.601562 -0.121094 1.550781 -0.09375 C 1.496094 -0.0625 1.441406 -0.0390625 1.382812 -0.0195312 C 1.324219 0 1.265625 0.0117188 1.203125 0.0195312 C 1.140625 0.03125 1.078125 0.0351562 1.019531 0.0351562 C 0.890625 0.0351562 0.773438 0.0273438 0.664062 0.015625 C 0.554688 0.00390625 0.449219 -0.0117188 0.34375 -0.0390625 L 0.34375 -0.34375 C 0.457031 -0.308594 0.566406 -0.285156 0.679688 -0.269531 C 0.789062 -0.253906 0.898438 -0.246094 1.007812 -0.246094 C 1.164062 -0.246094 1.28125 -0.265625 1.359375 -0.308594 C 1.433594 -0.351562 1.472656 -0.414062 1.472656 -0.492188 C 1.472656 -0.527344 1.464844 -0.558594 1.453125 -0.585938 C 1.441406 -0.613281 1.417969 -0.640625 1.386719 -0.664062 C 1.355469 -0.6875 1.308594 -0.714844 1.242188 -0.742188 C 1.175781 -0.765625 1.082031 -0.796875 0.96875 -0.832031 C 0.882812 -0.855469 0.804688 -0.886719 0.730469 -0.917969 C 0.65625 -0.949219 0.59375 -0.988281 0.542969 -1.03125 C 0.488281 -1.078125 0.445312 -1.128906 0.414062 -1.1875 C 0.386719 -1.25 0.371094 -1.320312 0.371094 -1.398438 C 0.371094 -1.453125 0.382812 -1.511719 0.40625 -1.574219 C 0.433594 -1.636719 0.472656 -1.695312 0.535156 -1.75 C 0.59375 -1.804688 0.671875 -1.851562 0.773438 -1.886719 C 0.875 -1.921875 1.003906 -1.941406 1.15625 -1.941406 C 1.230469 -1.941406 1.3125 -1.9375 1.402344 -1.929688 C 1.496094 -1.921875 1.589844 -1.90625 1.6875 -1.886719 L 1.6875 -1.589844 C 1.585938 -1.617188 1.484375 -1.636719 1.394531 -1.648438 C 1.300781 -1.660156 1.21875 -1.664062 1.152344 -1.664062 C 1.070312 -1.664062 1 -1.660156 0.941406 -1.648438 C 0.886719 -1.632812 0.839844 -1.617188 0.804688 -1.59375 C 0.769531 -1.570312 0.746094 -1.546875 0.730469 -1.515625 C 0.714844 -1.488281 0.707031 -1.453125 0.707031 -1.421875 C 0.707031 -1.386719 0.714844 -1.355469 0.726562 -1.328125 C 0.742188 -1.300781 0.765625 -1.273438 0.800781 -1.246094 C 0.839844 -1.222656 0.890625 -1.195312 0.953125 -1.167969 C 1.019531 -1.144531 1.101562 -1.113281 1.207031 -1.085938 C 1.320312 -1.050781 1.414062 -1.015625 1.492188 -0.980469 C 1.566406 -0.945312 1.628906 -0.90625 1.679688 -0.859375 C 1.726562 -0.816406 1.761719 -0.765625 1.78125 -0.710938 C 1.804688 -0.65625 1.8125 -0.589844 1.8125 -0.519531 Z "/>
</g>
<g id="glyph-0-7">
<path d="M 1.839844 -0.0273438 C 1.765625 -0.0078125 1.6875 0.0078125 1.609375 0.015625 C 1.527344 0.0234375 1.449219 0.0273438 1.367188 0.0273438 C 1.125 0.0273438 0.949219 -0.0273438 0.828125 -0.136719 C 0.710938 -0.242188 0.652344 -0.410156 0.652344 -0.632812 L 0.652344 -1.628906 L 0.121094 -1.628906 L 0.121094 -1.90625 L 0.652344 -1.90625 L 0.652344 -2.429688 L 0.984375 -2.515625 L 0.984375 -1.90625 L 1.839844 -1.90625 L 1.839844 -1.628906 L 0.984375 -1.628906 L 0.984375 -0.660156 C 0.984375 -0.523438 1.019531 -0.421875 1.09375 -0.355469 C 1.164062 -0.285156 1.273438 -0.253906 1.414062 -0.253906 C 1.476562 -0.253906 1.542969 -0.257812 1.613281 -0.265625 C 1.6875 -0.277344 1.761719 -0.292969 1.839844 -0.3125 Z "/>
</g>
<g id="glyph-0-8">
<path d="M 2.136719 0.777344 L 0 0.777344 L 0 0.503906 L 2.136719 0.503906 Z "/>
</g>
<g id="glyph-0-9">
<path d="M 1.933594 -0.988281 C 1.933594 -0.816406 1.910156 -0.667969 1.863281 -0.542969 C 1.816406 -0.417969 1.75 -0.3125 1.664062 -0.226562 C 1.582031 -0.144531 1.484375 -0.0820312 1.371094 -0.0390625 C 1.253906 0 1.132812 0.0234375 1 0.0234375 C 0.9375 0.0234375 0.878906 0.0195312 0.816406 0.0117188 C 0.757812 0.0078125 0.695312 -0.00390625 0.632812 -0.0195312 L 0.632812 0.777344 L 0.304688 0.777344 L 0.304688 -1.90625 L 0.597656 -1.90625 L 0.617188 -1.585938 C 0.714844 -1.71875 0.816406 -1.808594 0.921875 -1.863281 C 1.03125 -1.914062 1.148438 -1.941406 1.273438 -1.941406 C 1.382812 -1.941406 1.476562 -1.917969 1.558594 -1.871094 C 1.640625 -1.828125 1.710938 -1.761719 1.765625 -1.679688 C 1.820312 -1.597656 1.863281 -1.496094 1.890625 -1.378906 C 1.917969 -1.261719 1.933594 -1.132812 1.933594 -0.988281 M 1.59375 -0.972656 C 1.59375 -1.074219 1.589844 -1.164062 1.574219 -1.246094 C 1.558594 -1.332031 1.535156 -1.402344 1.503906 -1.460938 C 1.472656 -1.523438 1.433594 -1.566406 1.382812 -1.601562 C 1.332031 -1.636719 1.273438 -1.652344 1.207031 -1.652344 C 1.164062 -1.652344 1.121094 -1.644531 1.078125 -1.632812 C 1.035156 -1.617188 0.992188 -1.597656 0.945312 -1.566406 C 0.898438 -1.535156 0.851562 -1.492188 0.796875 -1.441406 C 0.746094 -1.390625 0.691406 -1.328125 0.632812 -1.25 L 0.632812 -0.328125 C 0.695312 -0.300781 0.757812 -0.28125 0.824219 -0.265625 C 0.894531 -0.253906 0.960938 -0.246094 1.023438 -0.246094 C 1.203125 -0.246094 1.34375 -0.304688 1.441406 -0.425781 C 1.542969 -0.546875 1.59375 -0.730469 1.59375 -0.972656 Z "/>
</g>
<g id="glyph-0-10">
<path d="M 1.914062 -1.054688 C 1.914062 -1.007812 1.914062 -0.96875 1.914062 -0.9375 C 1.910156 -0.90625 1.910156 -0.875 1.90625 -0.847656 L 0.566406 -0.847656 C 0.566406 -0.652344 0.621094 -0.503906 0.730469 -0.398438 C 0.839844 -0.292969 0.996094 -0.242188 1.203125 -0.242188 C 1.257812 -0.242188 1.3125 -0.242188 1.371094 -0.246094 C 1.425781 -0.253906 1.480469 -0.257812 1.53125 -0.265625 C 1.582031 -0.273438 1.632812 -0.28125 1.679688 -0.292969 C 1.726562 -0.300781 1.769531 -0.3125 1.8125 -0.324219 L 1.8125 -0.0507812 C 1.722656 -0.0273438 1.621094 -0.00390625 1.507812 0.0117188 C 1.394531 0.0273438 1.277344 0.0351562 1.15625 0.0351562 C 0.992188 0.0351562 0.851562 0.0117188 0.734375 -0.03125 C 0.617188 -0.078125 0.519531 -0.140625 0.445312 -0.226562 C 0.367188 -0.308594 0.3125 -0.414062 0.277344 -0.535156 C 0.238281 -0.65625 0.222656 -0.796875 0.222656 -0.949219 C 0.222656 -1.082031 0.242188 -1.210938 0.28125 -1.332031 C 0.320312 -1.449219 0.375 -1.554688 0.449219 -1.644531 C 0.523438 -1.734375 0.613281 -1.808594 0.722656 -1.859375 C 0.828125 -1.914062 0.953125 -1.941406 1.089844 -1.941406 C 1.222656 -1.941406 1.339844 -1.921875 1.441406 -1.878906 C 1.542969 -1.835938 1.628906 -1.777344 1.699219 -1.699219 C 1.769531 -1.625 1.824219 -1.53125 1.859375 -1.421875 C 1.894531 -1.3125 1.914062 -1.191406 1.914062 -1.054688 M 1.570312 -1.101562 C 1.574219 -1.1875 1.566406 -1.265625 1.546875 -1.335938 C 1.527344 -1.40625 1.496094 -1.464844 1.453125 -1.515625 C 1.410156 -1.566406 1.355469 -1.605469 1.292969 -1.632812 C 1.230469 -1.664062 1.15625 -1.675781 1.074219 -1.675781 C 1 -1.675781 0.933594 -1.664062 0.875 -1.636719 C 0.816406 -1.605469 0.765625 -1.566406 0.722656 -1.515625 C 0.679688 -1.464844 0.644531 -1.40625 0.617188 -1.335938 C 0.589844 -1.265625 0.574219 -1.1875 0.566406 -1.101562 Z "/>
</g>
<g id="glyph-0-11">
<path d="M 0.382812 -1.90625 L 0.683594 -1.90625 L 0.691406 -1.554688 C 0.804688 -1.691406 0.917969 -1.789062 1.027344 -1.851562 C 1.136719 -1.910156 1.246094 -1.941406 1.359375 -1.941406 C 1.554688 -1.941406 1.703125 -1.875 1.808594 -1.75 C 1.910156 -1.621094 1.957031 -1.429688 1.949219 -1.179688 L 1.613281 -1.179688 C 1.617188 -1.347656 1.59375 -1.46875 1.542969 -1.542969 C 1.488281 -1.617188 1.410156 -1.65625 1.308594 -1.65625 C 1.265625 -1.65625 1.222656 -1.648438 1.175781 -1.632812 C 1.132812 -1.617188 1.085938 -1.589844 1.039062 -1.554688 C 0.992188 -1.519531 0.941406 -1.476562 0.886719 -1.421875 C 0.832031 -1.367188 0.777344 -1.300781 0.714844 -1.226562 L 0.714844 0 L 0.382812 0 Z "/>
</g>
<g id="glyph-0-12">
<path d="M 1.835938 0 L 1.539062 0 L 1.527344 -0.308594 C 1.472656 -0.242188 1.417969 -0.1875 1.367188 -0.144531 C 1.316406 -0.101562 1.265625 -0.0664062 1.214844 -0.0390625 C 1.164062 -0.0117188 1.113281 0.0078125 1.0625 0.0195312 C 1.007812 0.0273438 0.957031 0.0351562 0.898438 0.0351562 C 0.703125 0.0351562 0.554688 -0.0234375 0.453125 -0.136719 C 0.355469 -0.253906 0.304688 -0.429688 0.304688 -0.660156 L 0.304688 -1.90625 L 0.632812 -1.90625 L 0.632812 -0.6875 C 0.632812 -0.394531 0.746094 -0.25 0.964844 -0.25 C 1.003906 -0.25 1.042969 -0.253906 1.082031 -0.265625 C 1.121094 -0.277344 1.164062 -0.300781 1.203125 -0.328125 C 1.246094 -0.359375 1.292969 -0.398438 1.339844 -0.449219 C 1.390625 -0.5 1.445312 -0.566406 1.507812 -0.640625 L 1.507812 -1.90625 L 1.835938 -1.90625 Z "/>
</g>
<g id="glyph-0-13">
<path d="M 0.304688 -1.90625 L 0.597656 -1.90625 L 0.613281 -1.597656 C 0.667969 -1.664062 0.722656 -1.71875 0.773438 -1.761719 C 0.824219 -1.808594 0.875 -1.84375 0.925781 -1.867188 C 0.976562 -1.894531 1.027344 -1.914062 1.078125 -1.925781 C 1.128906 -1.933594 1.183594 -1.941406 1.238281 -1.941406 C 1.4375 -1.941406 1.585938 -1.882812 1.683594 -1.765625 C 1.785156 -1.652344 1.835938 -1.476562 1.835938 -1.242188 L 1.835938 0 L 1.507812 0 L 1.507812 -1.21875 C 1.507812 -1.367188 1.476562 -1.476562 1.421875 -1.546875 C 1.367188 -1.621094 1.285156 -1.65625 1.171875 -1.65625 C 1.132812 -1.65625 1.09375 -1.648438 1.054688 -1.636719 C 1.015625 -1.625 0.976562 -1.605469 0.933594 -1.574219 C 0.890625 -1.546875 0.847656 -1.503906 0.796875 -1.453125 C 0.75 -1.402344 0.695312 -1.339844 0.632812 -1.265625 L 0.632812 0 L 0.304688 0 Z "/>
</g>
<g id="glyph-0-14">
<path d="M 0.953125 -1.632812 L 0.390625 -1.632812 L 0.390625 -1.90625 L 1.289062 -1.90625 L 1.289062 -0.273438 L 1.855469 -0.273438 L 1.855469 0 L 0.328125 0 L 0.328125 -0.273438 L 0.953125 -0.273438 L 0.953125 -1.632812 M 1.070312 -2.707031 C 1.105469 -2.707031 1.140625 -2.699219 1.171875 -2.6875 C 1.203125 -2.671875 1.230469 -2.652344 1.253906 -2.628906 C 1.277344 -2.605469 1.296875 -2.578125 1.308594 -2.546875 C 1.324219 -2.515625 1.328125 -2.484375 1.328125 -2.445312 C 1.328125 -2.410156 1.324219 -2.378906 1.308594 -2.34375 C 1.296875 -2.3125 1.277344 -2.285156 1.253906 -2.261719 C 1.230469 -2.238281 1.203125 -2.21875 1.171875 -2.207031 C 1.140625 -2.191406 1.105469 -2.1875 1.070312 -2.1875 C 1.03125 -2.1875 1 -2.191406 0.964844 -2.207031 C 0.933594 -2.21875 0.90625 -2.238281 0.882812 -2.261719 C 0.859375 -2.285156 0.84375 -2.3125 0.828125 -2.34375 C 0.816406 -2.378906 0.808594 -2.410156 0.808594 -2.445312 C 0.808594 -2.484375 0.816406 -2.515625 0.828125 -2.546875 C 0.84375 -2.578125 0.859375 -2.605469 0.882812 -2.628906 C 0.90625 -2.652344 0.933594 -2.671875 0.964844 -2.6875 C 1 -2.699219 1.03125 -2.707031 1.070312 -2.707031 Z "/>
</g>
<g id="glyph-0-15">
<path d="M 1.484375 0.777344 L 0.546875 0.777344 L 0.546875 0.511719 L 1.164062 0.511719 L 1.164062 -2.484375 L 0.546875 -2.484375 L 0.546875 -2.75 L 1.484375 -2.75 Z "/>
</g>
<g id="glyph-0-16">
</g>
<g id="glyph-0-17">
<path d="M 1.886719 -1.226562 L 0.253906 -1.226562 L 0.253906 -1.507812 L 1.886719 -1.507812 L 1.886719 -1.226562 M 1.886719 -0.566406 L 0.253906 -0.566406 L 0.253906 -0.84375 L 1.886719 -0.84375 Z "/>
</g>
<g id="glyph-0-18">
<path d="M 1.871094 0 L 0.441406 0 L 0.441406 -2.480469 L 0.785156 -2.480469 L 0.785156 -0.289062 L 1.871094 -0.289062 Z "/>
</g>
<g id="glyph-0-19">
<path d="M 1.835938 -2.683594 L 0.535156 0.410156 L 0.21875 0.410156 L 1.519531 -2.683594 Z "/>
</g>
<g id="glyph-0-20">
<path d="M 1.929688 -1.722656 C 1.929688 -1.621094 1.910156 -1.519531 1.871094 -1.421875 C 1.835938 -1.320312 1.777344 -1.234375 1.695312 -1.15625 C 1.617188 -1.074219 1.515625 -1.011719 1.390625 -0.964844 C 1.265625 -0.914062 1.117188 -0.890625 0.945312 -0.890625 L 0.636719 -0.890625 L 0.636719 0 L 0.300781 0 L 0.300781 -2.480469 L 1 -2.480469 C 1.121094 -2.480469 1.238281 -2.46875 1.351562 -2.441406 C 1.464844 -2.414062 1.5625 -2.371094 1.648438 -2.308594 C 1.734375 -2.25 1.804688 -2.171875 1.851562 -2.074219 C 1.902344 -1.976562 1.929688 -1.859375 1.929688 -1.722656 M 1.578125 -1.707031 C 1.578125 -1.867188 1.527344 -1.988281 1.421875 -2.074219 C 1.316406 -2.160156 1.171875 -2.199219 0.984375 -2.199219 L 0.636719 -2.199219 L 0.636719 -1.179688 L 0.953125 -1.179688 C 1.152344 -1.179688 1.308594 -1.222656 1.414062 -1.308594 C 1.523438 -1.398438 1.578125 -1.53125 1.578125 -1.707031 Z "/>
</g>
<g id="glyph-0-21">
<path d="M 1.527344 0 L 1.519531 -0.257812 C 1.417969 -0.152344 1.3125 -0.078125 1.203125 -0.0351562 C 1.097656 0.0117188 0.984375 0.0351562 0.867188 0.0351562 C 0.757812 0.0351562 0.664062 0.0195312 0.589844 -0.0078125 C 0.511719 -0.0351562 0.449219 -0.0742188 0.398438 -0.121094 C 0.347656 -0.171875 0.3125 -0.230469 0.289062 -0.292969 C 0.265625 -0.359375 0.253906 -0.433594 0.253906 -0.507812 C 0.253906 -0.699219 0.324219 -0.851562 0.464844 -0.957031 C 0.609375 -1.066406 0.820312 -1.121094 1.097656 -1.121094 L 1.492188 -1.121094 L 1.492188 -1.289062 C 1.492188 -1.398438 1.457031 -1.492188 1.382812 -1.558594 C 1.3125 -1.625 1.203125 -1.660156 1.054688 -1.660156 C 0.945312 -1.660156 0.839844 -1.648438 0.734375 -1.625 C 0.632812 -1.601562 0.523438 -1.566406 0.410156 -1.519531 L 0.410156 -1.820312 C 0.453125 -1.835938 0.5 -1.847656 0.550781 -1.863281 C 0.601562 -1.878906 0.65625 -1.890625 0.714844 -1.902344 C 0.769531 -1.914062 0.832031 -1.921875 0.890625 -1.929688 C 0.953125 -1.9375 1.015625 -1.941406 1.082031 -1.941406 C 1.195312 -1.941406 1.300781 -1.929688 1.390625 -1.902344 C 1.484375 -1.878906 1.5625 -1.839844 1.625 -1.785156 C 1.691406 -1.734375 1.738281 -1.671875 1.773438 -1.589844 C 1.808594 -1.511719 1.824219 -1.421875 1.824219 -1.3125 L 1.824219 0 L 1.527344 0 M 1.492188 -0.867188 L 1.074219 -0.867188 C 0.992188 -0.867188 0.917969 -0.859375 0.859375 -0.84375 C 0.800781 -0.828125 0.753906 -0.804688 0.714844 -0.773438 C 0.675781 -0.742188 0.648438 -0.707031 0.628906 -0.664062 C 0.609375 -0.621094 0.601562 -0.574219 0.601562 -0.519531 C 0.601562 -0.484375 0.609375 -0.449219 0.617188 -0.414062 C 0.628906 -0.382812 0.648438 -0.351562 0.675781 -0.324219 C 0.699219 -0.300781 0.730469 -0.277344 0.773438 -0.265625 C 0.8125 -0.25 0.863281 -0.242188 0.921875 -0.242188 C 0.996094 -0.242188 1.085938 -0.265625 1.183594 -0.308594 C 1.28125 -0.355469 1.382812 -0.429688 1.492188 -0.53125 Z "/>
</g>
<g id="glyph-0-22">
<path d="M 1.785156 -0.0703125 C 1.699219 -0.0390625 1.609375 -0.0117188 1.519531 0.00390625 C 1.429688 0.0195312 1.335938 0.0273438 1.238281 0.0273438 C 0.9375 0.0273438 0.707031 -0.0546875 0.542969 -0.21875 C 0.382812 -0.382812 0.300781 -0.621094 0.300781 -0.933594 C 0.300781 -1.085938 0.324219 -1.222656 0.371094 -1.34375 C 0.417969 -1.46875 0.484375 -1.574219 0.566406 -1.660156 C 0.652344 -1.746094 0.753906 -1.816406 0.871094 -1.863281 C 0.988281 -1.910156 1.121094 -1.933594 1.261719 -1.933594 C 1.359375 -1.933594 1.453125 -1.925781 1.539062 -1.914062 C 1.625 -1.898438 1.707031 -1.875 1.785156 -1.84375 L 1.785156 -1.527344 C 1.703125 -1.570312 1.617188 -1.601562 1.535156 -1.621094 C 1.449219 -1.640625 1.359375 -1.652344 1.269531 -1.652344 C 1.183594 -1.652344 1.105469 -1.636719 1.027344 -1.605469 C 0.953125 -1.570312 0.886719 -1.523438 0.828125 -1.464844 C 0.773438 -1.402344 0.726562 -1.328125 0.695312 -1.242188 C 0.664062 -1.15625 0.644531 -1.054688 0.644531 -0.945312 C 0.644531 -0.714844 0.703125 -0.542969 0.8125 -0.429688 C 0.925781 -0.3125 1.082031 -0.257812 1.28125 -0.257812 C 1.371094 -0.257812 1.457031 -0.265625 1.542969 -0.285156 C 1.625 -0.308594 1.707031 -0.335938 1.785156 -0.378906 Z "/>
</g>
<g id="glyph-0-23">
<path d="M 2.019531 0 L 1.566406 0 L 0.675781 -1.023438 L 0.675781 0 L 0.34375 0 L 0.34375 -2.683594 L 0.675781 -2.683594 L 0.675781 -1.035156 L 1.53125 -1.90625 L 1.96875 -1.90625 L 1.074219 -1.027344 Z "/>
</g>
</g>
</defs>
<g fill="rgb(100%, 100%, 100%)" fill-opacity="1">
<use xlink:href="#glyph-0-0" x="30" y="22.887695"/>
<use xlink:href="#glyph-0-1" x="32" y="22.887695"/>
<use xlink:href="#glyph-0-2" x="34" y="22.887695"/>
<use xlink:href="#glyph-0-3" x="36" y="22.887695"/>
<use xlink:href="#glyph-0-4" x="38" y="22.887695"/>
<use xlink:href="#glyph-0-5" x="40" y="22.887695"/>
<use xlink:href="#glyph-0-6" x="42" y="22.887695"/>
<use xlink:href="#glyph-0-7" x="44" y="22.887695"/>
<use xlink:href="#glyph-0-8" x="46" y="22.887695"/>
<use xlink:href="#glyph-0-9" x="48" y="22.887695"/>
<use xlink:href="#glyph-0-10" x="50" y="22.887695"/>
<use xlink:href="#glyph-0-11" x="52" y="22.887695"/>
<use xlink:href="#glyph-0-8" x="54" y="22.887695"/>
<use xlink:href="#glyph-0-12" x="56" y="22.887695"/>
<use xlink:href="#glyph-0-13" x="58" y="22.887695"/>
<use xlink:href="#glyph-0-14" x="60" y="22.887695"/>
<use xlink:href="#glyph-0-7" x="62" y="22.887695"/>
<use xlink:href="#glyph-0-3" x="64" y="22.887695"/>
<use xlink:href="#glyph-0-15" x="66" y="22.887695"/>
<use xlink:href="#glyph-0-16" x="68" y="22.887695"/>
<use xlink:href="#glyph-0-17" x="70" y="22.887695"/>
<use xlink:href="#glyph-0-16" x="72" y="22.887695"/>
<use xlink:href="#glyph-0-0" x="74" y="22.887695"/>
<use xlink:href="#glyph-0-1" x="76" y="22.887695"/>
<use xlink:href="#glyph-0-2" x="78" y="22.887695"/>
<use xlink:href="#glyph-0-3" x="80" y="22.887695"/>
<use xlink:href="#glyph-0-18" x="82" y="22.887695"/>
<use xlink:href="#glyph-0-14" x="84" y="22.887695"/>
<use xlink:href="#glyph-0-6" x="86" y="22.887695"/>
<use xlink:href="#glyph-0-7" x="88" y="22.887695"/>
<use xlink:href="#glyph-0-16" x="90" y="22.887695"/>
<use xlink:href="#glyph-0-4" x="92" y="22.887695"/>
<use xlink:href="#glyph-0-5" x="94" y="22.887695"/>
<use xlink:href="#glyph-0-6" x="96" y="22.887695"/>
<use xlink:href="#glyph-0-7" x="98" y="22.887695"/>
<use xlink:href="#glyph-0-3" x="100" y="22.887695"/>
<use xlink:href="#glyph-0-15" x="102" y="22.887695"/>
<use xlink:href="#glyph-0-16" x="104" y="22.887695"/>
<use xlink:href="#glyph-0-19" x="106" y="22.887695"/>
<use xlink:href="#glyph-0-16" x="108" y="22.887695"/>
<use xlink:href="#glyph-0-0" x="110" y="22.887695"/>
<use xlink:href="#glyph-0-1" x="112" y="22.887695"/>
<use xlink:href="#glyph-0-2" x="114" y="22.887695"/>
<use xlink:href="#glyph-0-3" x="116" y="22.887695"/>
<use xlink:href="#glyph-0-20" x="118" y="22.887695"/>
<use xlink:href="#glyph-0-21" x="120" y="22.887695"/>
<use xlink:href="#glyph-0-22" x="122" y="22.887695"/>
<use xlink:href="#glyph-0-23" x="124" y="22.887695"/>
<use xlink:href="#glyph-0-3" x="126" y="22.887695"/>
<use xlink:href="#glyph-0-15" x="128" y="22.887695"/>
</g>
</svg>
