<?xml version="1.0" encoding="UTF-8"?>
<svg xmlns="http://www.w3.org/2000/svg" xmlns:xlink="http://www.w3.org/1999/xlink" width="854" height="480" viewBox="0 0 854 480">
<defs>
<g>
<g id="glyph-0-0">
<path d="M 3.40625 -3.011719 C 3.308594 -2.992188 3.214844 -2.957031 3.125 -2.90625 C 3.039062 -2.851562 2.964844 -2.757812 2.898438 -2.625 C 2.773438 -2.332031 2.640625 -2.03125 2.503906 -1.714844 C 2.367188 -1.398438 2.222656 -1.066406 2.078125 -0.71875 C 2.035156 -0.621094 1.988281 -0.5 1.9375 -0.363281 C 1.890625 -0.226562 1.84375 -0.0976562 1.804688 0.0273438 L 1.550781 0.0273438 C 1.34375 -0.480469 1.152344 -0.945312 0.980469 -1.367188 C 0.804688 -1.785156 0.625 -2.214844 0.4375 -2.65625 C 0.394531 -2.757812 0.324219 -2.832031 0.230469 -2.890625 C 0.132812 -2.945312 0.0351562 -2.980469 -0.0625 -2.996094 L -0.0625 -3.210938 L 1.421875 -3.210938 L 1.421875 -2.980469 C 1.359375 -2.980469 1.277344 -2.964844 1.179688 -2.941406 C 1.082031 -2.917969 1.03125 -2.882812 1.03125 -2.839844 C 1.03125 -2.832031 1.039062 -2.816406 1.050781 -2.789062 C 1.058594 -2.761719 1.070312 -2.730469 1.082031 -2.695312 C 1.171875 -2.476562 1.296875 -2.164062 1.457031 -1.769531 C 1.621094 -1.371094 1.753906 -1.050781 1.855469 -0.808594 C 1.933594 -0.996094 2.03125 -1.226562 2.148438 -1.503906 C 2.265625 -1.78125 2.394531 -2.09375 2.53125 -2.4375 C 2.554688 -2.492188 2.574219 -2.546875 2.59375 -2.601562 C 2.613281 -2.652344 2.621094 -2.703125 2.621094 -2.753906 C 2.621094 -2.792969 2.605469 -2.824219 2.570312 -2.851562 C 2.53125 -2.882812 2.492188 -2.90625 2.441406 -2.929688 C 2.390625 -2.953125 2.339844 -2.96875 2.292969 -2.980469 C 2.246094 -2.988281 2.207031 -2.996094 2.175781 -3 L 2.175781 -3.210938 L 3.40625 -3.210938 Z "/>
</g>
<g id="glyph-0-1">
<path d="M 2.351562 -1.570312 C 2.441406 -1.492188 2.511719 -1.402344 2.558594 -1.300781 C 2.605469 -1.199219 2.628906 -1.074219 2.628906 -0.925781 C 2.628906 -0.628906 2.519531 -0.386719 2.296875 -0.199219 C 2.074219 -0.0117188 1.785156 0.0859375 1.433594 0.0859375 C 1.246094 0.0859375 1.074219 0.0507812 0.917969 -0.015625 C 0.757812 -0.0820312 0.648438 -0.144531 0.578125 -0.203125 L 0.515625 0.0078125 L 0.269531 0.0078125 L 0.238281 -1.105469 L 0.460938 -1.105469 C 0.480469 -1.023438 0.515625 -0.921875 0.574219 -0.808594 C 0.628906 -0.695312 0.699219 -0.59375 0.777344 -0.503906 C 0.863281 -0.40625 0.964844 -0.324219 1.082031 -0.261719 C 1.199219 -0.195312 1.332031 -0.164062 1.480469 -0.164062 C 1.6875 -0.164062 1.851562 -0.210938 1.960938 -0.304688 C 2.074219 -0.398438 2.132812 -0.535156 2.132812 -0.710938 C 2.132812 -0.804688 2.113281 -0.882812 2.078125 -0.949219 C 2.042969 -1.015625 1.988281 -1.074219 1.921875 -1.125 C 1.847656 -1.171875 1.761719 -1.21875 1.65625 -1.257812 C 1.550781 -1.296875 1.4375 -1.335938 1.308594 -1.375 C 1.207031 -1.40625 1.09375 -1.449219 0.96875 -1.503906 C 0.84375 -1.554688 0.738281 -1.617188 0.648438 -1.6875 C 0.550781 -1.765625 0.472656 -1.859375 0.414062 -1.96875 C 0.351562 -2.078125 0.320312 -2.210938 0.320312 -2.359375 C 0.320312 -2.621094 0.417969 -2.84375 0.617188 -3.027344 C 0.808594 -3.210938 1.070312 -3.300781 1.398438 -3.300781 C 1.527344 -3.300781 1.652344 -3.285156 1.785156 -3.25 C 1.917969 -3.21875 2.023438 -3.179688 2.105469 -3.132812 L 2.179688 -3.304688 L 2.414062 -3.304688 L 2.464844 -2.273438 L 2.238281 -2.273438 C 2.195312 -2.503906 2.097656 -2.691406 1.945312 -2.835938 C 1.792969 -2.980469 1.609375 -3.054688 1.394531 -3.054688 C 1.214844 -3.054688 1.074219 -3.007812 0.972656 -2.917969 C 0.871094 -2.828125 0.820312 -2.722656 0.820312 -2.59375 C 0.820312 -2.496094 0.835938 -2.414062 0.871094 -2.351562 C 0.90625 -2.285156 0.953125 -2.230469 1.023438 -2.183594 C 1.085938 -2.140625 1.167969 -2.101562 1.269531 -2.0625 C 1.367188 -2.023438 1.488281 -1.980469 1.632812 -1.933594 C 1.777344 -1.886719 1.914062 -1.835938 2.039062 -1.773438 C 2.167969 -1.714844 2.269531 -1.644531 2.351562 -1.570312 Z "/>
</g>
</g>
</defs>
<g fill="rgb(53.333333%, 53.333333%, 53.333333%)" fill-opacity="1">
<use xlink:href="#glyph-0-0" x="30" y="26.112305"/>
<use xlink:href="#glyph-0-1" x="33" y="26.112305"/>
</g>
</svg>
