<?xml version="1.0" encoding="UTF-8"?>
<svg xmlns="http://www.w3.org/2000/svg" xmlns:xlink="http://www.w3.org/1999/xlink" width="854" height="480" viewBox="0 0 854 480">
<defs>
<g>
<g id="glyph-0-0">
<path d="M 4.625 0 L 2.707031 0 L 2.707031 -0.230469 C 2.875 -0.242188 3.015625 -0.265625 3.128906 -0.296875 C 3.238281 -0.328125 3.292969 -0.367188 3.292969 -0.417969 C 3.292969 -0.4375 3.292969 -0.460938 3.289062 -0.488281 C 3.285156 -0.515625 3.277344 -0.542969 3.269531 -0.5625 L 2.886719 -1.597656 L 1.265625 -1.597656 C 1.203125 -1.445312 1.15625 -1.3125 1.117188 -1.203125 C 1.078125 -1.089844 1.042969 -0.984375 1.015625 -0.886719 C 0.984375 -0.796875 0.964844 -0.71875 0.953125 -0.660156 C 0.945312 -0.601562 0.9375 -0.554688 0.9375 -0.515625 C 0.9375 -0.429688 1.007812 -0.363281 1.144531 -0.316406 C 1.28125 -0.269531 1.433594 -0.238281 1.605469 -0.230469 L 1.605469 0 L -0.132812 0 L -0.132812 -0.230469 C -0.078125 -0.234375 -0.0078125 -0.246094 0.078125 -0.269531 C 0.164062 -0.289062 0.230469 -0.316406 0.285156 -0.351562 C 0.375 -0.410156 0.441406 -0.472656 0.488281 -0.535156 C 0.535156 -0.597656 0.582031 -0.6875 0.628906 -0.800781 C 0.859375 -1.378906 1.117188 -2.03125 1.394531 -2.753906 C 1.675781 -3.476562 1.925781 -4.121094 2.144531 -4.683594 L 2.40625 -4.683594 L 3.945312 -0.699219 C 3.976562 -0.617188 4.015625 -0.546875 4.054688 -0.496094 C 4.097656 -0.441406 4.15625 -0.390625 4.226562 -0.339844 C 4.277344 -0.3125 4.34375 -0.285156 4.421875 -0.265625 C 4.503906 -0.246094 4.570312 -0.234375 4.625 -0.230469 L 4.625 0 M 2.765625 -1.886719 L 2.066406 -3.679688 L 1.378906 -1.886719 Z "/>
</g>
<g id="glyph-0-1">
<path d="M 3.902344 -3.464844 L 3.660156 -3.464844 C 3.613281 -3.636719 3.519531 -3.816406 3.375 -4.015625 C 3.230469 -4.210938 3.089844 -4.316406 2.957031 -4.335938 C 2.890625 -4.34375 2.8125 -4.351562 2.71875 -4.355469 C 2.628906 -4.359375 2.523438 -4.363281 2.40625 -4.363281 L 1.628906 -4.363281 L 1.628906 -2.507812 L 2.164062 -2.507812 C 2.324219 -2.507812 2.449219 -2.523438 2.539062 -2.558594 C 2.628906 -2.589844 2.703125 -2.640625 2.765625 -2.710938 C 2.808594 -2.757812 2.851562 -2.832031 2.886719 -2.933594 C 2.921875 -3.035156 2.945312 -3.144531 2.957031 -3.257812 L 3.199219 -3.257812 L 3.199219 -1.441406 L 2.957031 -1.441406 C 2.949219 -1.539062 2.925781 -1.644531 2.890625 -1.765625 C 2.851562 -1.890625 2.808594 -1.976562 2.765625 -2.03125 C 2.703125 -2.113281 2.617188 -2.167969 2.519531 -2.195312 C 2.421875 -2.226562 2.300781 -2.238281 2.164062 -2.238281 L 1.628906 -2.238281 L 1.628906 -0.648438 C 1.628906 -0.578125 1.644531 -0.515625 1.671875 -0.457031 C 1.703125 -0.402344 1.75 -0.355469 1.824219 -0.320312 C 1.855469 -0.308594 1.925781 -0.289062 2.035156 -0.265625 C 2.144531 -0.246094 2.226562 -0.234375 2.28125 -0.230469 L 2.28125 0 L 0.28125 0 L 0.28125 -0.230469 C 0.34375 -0.234375 0.433594 -0.242188 0.539062 -0.253906 C 0.648438 -0.261719 0.71875 -0.273438 0.75 -0.289062 C 0.816406 -0.316406 0.863281 -0.359375 0.894531 -0.414062 C 0.921875 -0.46875 0.9375 -0.539062 0.9375 -0.617188 L 0.9375 -3.949219 C 0.9375 -4.019531 0.925781 -4.082031 0.902344 -4.140625 C 0.878906 -4.195312 0.828125 -4.238281 0.75 -4.273438 C 0.691406 -4.300781 0.613281 -4.328125 0.515625 -4.347656 C 0.417969 -4.371094 0.339844 -4.382812 0.28125 -4.386719 L 0.28125 -4.617188 L 3.902344 -4.617188 Z "/>
</g>
<g id="glyph-0-2">
<path d="M 4.074219 -3.367188 L 3.851562 -3.367188 C 3.832031 -3.445312 3.796875 -3.535156 3.746094 -3.644531 C 3.695312 -3.75 3.636719 -3.851562 3.574219 -3.949219 C 3.507812 -4.046875 3.4375 -4.136719 3.359375 -4.210938 C 3.28125 -4.285156 3.207031 -4.328125 3.136719 -4.339844 C 3.070312 -4.347656 2.984375 -4.355469 2.882812 -4.359375 C 2.78125 -4.363281 2.683594 -4.367188 2.597656 -4.367188 L 2.410156 -4.367188 L 2.410156 -0.671875 C 2.410156 -0.597656 2.425781 -0.535156 2.453125 -0.472656 C 2.484375 -0.414062 2.539062 -0.367188 2.613281 -0.335938 C 2.652344 -0.320312 2.734375 -0.300781 2.859375 -0.273438 C 2.984375 -0.246094 3.082031 -0.234375 3.152344 -0.230469 L 3.152344 0 L 0.96875 0 L 0.96875 -0.230469 C 1.03125 -0.234375 1.125 -0.242188 1.25 -0.257812 C 1.375 -0.269531 1.460938 -0.285156 1.507812 -0.304688 C 1.578125 -0.335938 1.632812 -0.375 1.664062 -0.429688 C 1.699219 -0.480469 1.714844 -0.550781 1.714844 -0.640625 L 1.714844 -4.367188 L 1.527344 -4.367188 C 1.460938 -4.367188 1.375 -4.363281 1.277344 -4.359375 C 1.175781 -4.355469 1.082031 -4.351562 0.988281 -4.339844 C 0.917969 -4.332031 0.84375 -4.289062 0.765625 -4.210938 C 0.691406 -4.132812 0.617188 -4.046875 0.554688 -3.949219 C 0.488281 -3.851562 0.429688 -3.746094 0.378906 -3.636719 C 0.332031 -3.527344 0.296875 -3.4375 0.277344 -3.367188 L 0.046875 -3.367188 L 0.046875 -4.617188 L 4.074219 -4.617188 Z "/>
</g>
<g id="glyph-0-3">
<path d="M 4.203125 -1.359375 L 4.113281 0 L 0.28125 0 L 0.28125 -0.230469 C 0.34375 -0.234375 0.433594 -0.246094 0.539062 -0.257812 C 0.648438 -0.273438 0.71875 -0.289062 0.75 -0.304688 C 0.820312 -0.335938 0.871094 -0.378906 0.898438 -0.429688 C 0.925781 -0.480469 0.9375 -0.546875 0.9375 -0.628906 L 0.9375 -3.949219 C 0.9375 -4.019531 0.925781 -4.082031 0.902344 -4.140625 C 0.878906 -4.195312 0.828125 -4.238281 0.75 -4.273438 C 0.691406 -4.300781 0.613281 -4.328125 0.515625 -4.347656 C 0.417969 -4.371094 0.339844 -4.382812 0.28125 -4.386719 L 0.28125 -4.617188 L 3.855469 -4.617188 L 3.855469 -3.503906 L 3.609375 -3.503906 C 3.566406 -3.671875 3.472656 -3.847656 3.328125 -4.03125 C 3.183594 -4.21875 3.046875 -4.320312 2.917969 -4.335938 C 2.847656 -4.34375 2.769531 -4.351562 2.675781 -4.355469 C 2.582031 -4.359375 2.476562 -4.363281 2.355469 -4.363281 L 1.628906 -4.363281 L 1.628906 -2.527344 L 2.152344 -2.527344 C 2.320312 -2.527344 2.441406 -2.542969 2.519531 -2.574219 C 2.59375 -2.605469 2.664062 -2.65625 2.722656 -2.730469 C 2.769531 -2.792969 2.808594 -2.878906 2.84375 -2.984375 C 2.878906 -3.089844 2.898438 -3.1875 2.910156 -3.28125 L 3.152344 -3.28125 L 3.152344 -1.472656 L 2.910156 -1.472656 C 2.902344 -1.574219 2.878906 -1.6875 2.839844 -1.800781 C 2.800781 -1.917969 2.761719 -2 2.722656 -2.054688 C 2.652344 -2.140625 2.578125 -2.195312 2.492188 -2.21875 C 2.40625 -2.246094 2.292969 -2.257812 2.152344 -2.257812 L 1.628906 -2.257812 L 1.628906 -0.875 C 1.628906 -0.734375 1.640625 -0.625 1.660156 -0.546875 C 1.679688 -0.464844 1.71875 -0.40625 1.773438 -0.363281 C 1.832031 -0.324219 1.90625 -0.296875 2.003906 -0.285156 C 2.101562 -0.273438 2.242188 -0.265625 2.421875 -0.265625 C 2.492188 -0.265625 2.585938 -0.265625 2.703125 -0.265625 C 2.820312 -0.265625 2.921875 -0.269531 3 -0.28125 C 3.082031 -0.289062 3.167969 -0.304688 3.257812 -0.328125 C 3.34375 -0.351562 3.40625 -0.378906 3.445312 -0.417969 C 3.542969 -0.523438 3.648438 -0.683594 3.757812 -0.894531 C 3.867188 -1.105469 3.9375 -1.261719 3.96875 -1.359375 Z "/>
</g>
<g id="glyph-0-4">
<path d="M 4.816406 0 L 3.574219 0 C 3.296875 -0.433594 3.050781 -0.804688 2.828125 -1.121094 C 2.605469 -1.433594 2.363281 -1.757812 2.105469 -2.09375 L 1.628906 -2.09375 L 1.628906 -0.628906 C 1.628906 -0.550781 1.644531 -0.484375 1.667969 -0.429688 C 1.691406 -0.371094 1.742188 -0.328125 1.820312 -0.296875 C 1.859375 -0.28125 1.925781 -0.265625 2.023438 -0.253906 C 2.121094 -0.242188 2.203125 -0.234375 2.273438 -0.230469 L 2.273438 0 L 0.320312 0 L 0.320312 -0.230469 C 0.371094 -0.234375 0.445312 -0.242188 0.546875 -0.253906 C 0.644531 -0.265625 0.710938 -0.277344 0.75 -0.296875 C 0.816406 -0.324219 0.863281 -0.367188 0.894531 -0.417969 C 0.921875 -0.472656 0.9375 -0.542969 0.9375 -0.628906 L 0.9375 -3.96875 C 0.9375 -4.042969 0.925781 -4.109375 0.90625 -4.171875 C 0.882812 -4.226562 0.832031 -4.273438 0.75 -4.304688 C 0.699219 -4.324219 0.628906 -4.339844 0.539062 -4.355469 C 0.453125 -4.375 0.378906 -4.382812 0.320312 -4.386719 L 0.320312 -4.617188 L 2.453125 -4.617188 C 2.644531 -4.617188 2.828125 -4.597656 3 -4.558594 C 3.171875 -4.519531 3.328125 -4.453125 3.464844 -4.367188 C 3.601562 -4.277344 3.707031 -4.164062 3.789062 -4.023438 C 3.871094 -3.886719 3.910156 -3.714844 3.910156 -3.519531 C 3.910156 -3.339844 3.882812 -3.183594 3.828125 -3.046875 C 3.773438 -2.910156 3.695312 -2.792969 3.585938 -2.691406 C 3.488281 -2.597656 3.371094 -2.519531 3.234375 -2.449219 C 3.097656 -2.382812 2.949219 -2.324219 2.78125 -2.273438 C 3.011719 -1.972656 3.199219 -1.71875 3.351562 -1.511719 C 3.503906 -1.308594 3.6875 -1.058594 3.90625 -0.761719 C 4 -0.632812 4.089844 -0.535156 4.164062 -0.472656 C 4.242188 -0.410156 4.320312 -0.359375 4.394531 -0.320312 C 4.449219 -0.292969 4.523438 -0.273438 4.605469 -0.257812 C 4.691406 -0.242188 4.761719 -0.234375 4.816406 -0.230469 L 4.816406 0 M 3.105469 -3.441406 C 3.105469 -3.722656 3.023438 -3.941406 2.863281 -4.105469 C 2.703125 -4.269531 2.476562 -4.351562 2.183594 -4.351562 L 1.628906 -4.351562 L 1.628906 -2.375 L 2.058594 -2.375 C 2.355469 -2.375 2.605469 -2.46875 2.804688 -2.660156 C 3.003906 -2.851562 3.105469 -3.113281 3.105469 -3.441406 Z "/>
</g>
</g>
</defs>
<g fill="rgb(51.372549%, 75.686275%, 40.392157%)" fill-opacity="1">
<use xlink:href="#glyph-0-0" x="30" y="26.112305"/>
<use xlink:href="#glyph-0-1" x="34" y="26.112305"/>
<use xlink:href="#glyph-0-2" x="38" y="26.112305"/>
<use xlink:href="#glyph-0-3" x="42" y="26.112305"/>
<use xlink:href="#glyph-0-4" x="46" y="26.112305"/>
</g>
</svg>
